<mxfile host="Electron" modified="2023-11-09T18:22:06.630Z" agent="Mozilla/5.0 (Macintosh; Intel Mac OS X 10_15_7) AppleWebKit/537.36 (KHTML, like Gecko) draw.io/22.0.3 Chrome/114.0.5735.289 Electron/25.8.4 Safari/537.36" etag="rt18G2onaAdeqpZPZFbu" version="22.0.3" type="device">
  <diagram name="PÃ¡gina-1" id="qZyJa4rvhvixBrbJdjUm">
    <mxGraphModel dx="1553" dy="1040" grid="1" gridSize="10" guides="1" tooltips="1" connect="1" arrows="1" fold="1" page="1" pageScale="1" pageWidth="3300" pageHeight="2339" math="0" shadow="0">
      <root>
        <mxCell id="0" />
        <mxCell id="1" parent="0" />
        <mxCell id="N-R3ZWtZ8l9Xppb5PnGK-9" value="Hadoop Cluster" style="swimlane;whiteSpace=wrap;html=1;" parent="1" vertex="1">
          <mxGeometry x="540" y="670" width="700" height="390" as="geometry" />
        </mxCell>
        <mxCell id="N-R3ZWtZ8l9Xppb5PnGK-16" value="" style="group" parent="N-R3ZWtZ8l9Xppb5PnGK-9" vertex="1" connectable="0">
          <mxGeometry x="50" y="60" width="159.24" height="160" as="geometry" />
        </mxCell>
        <mxCell id="N-R3ZWtZ8l9Xppb5PnGK-11" value="&lt;font color=&quot;#ffffff&quot;&gt;Jupyter Notebook 1&lt;/font&gt;" style="sketch=0;outlineConnect=0;fontColor=#232F3E;gradientColor=none;fillColor=#7AA116;strokeColor=none;dashed=0;verticalLabelPosition=bottom;verticalAlign=top;align=center;html=1;fontSize=12;fontStyle=0;aspect=fixed;pointerEvents=1;shape=mxgraph.aws4.notebook;" parent="N-R3ZWtZ8l9Xppb5PnGK-16" vertex="1">
          <mxGeometry y="30" width="113.34" height="130" as="geometry" />
        </mxCell>
        <mxCell id="N-R3ZWtZ8l9Xppb5PnGK-15" value="" style="shape=image;verticalLabelPosition=bottom;labelBackgroundColor=default;verticalAlign=top;aspect=fixed;imageAspect=0;image=https://upload.wikimedia.org/wikipedia/commons/thumb/3/38/Jupyter_logo.svg/883px-Jupyter_logo.svg.png;" parent="N-R3ZWtZ8l9Xppb5PnGK-16" vertex="1">
          <mxGeometry x="80" width="79.24" height="91.8" as="geometry" />
        </mxCell>
        <mxCell id="N-R3ZWtZ8l9Xppb5PnGK-21" value="" style="group" parent="N-R3ZWtZ8l9Xppb5PnGK-9" vertex="1" connectable="0">
          <mxGeometry x="270.38" y="60" width="159.24" height="160" as="geometry" />
        </mxCell>
        <mxCell id="N-R3ZWtZ8l9Xppb5PnGK-22" value="&lt;font color=&quot;#ffffff&quot;&gt;Jupyter Notebook 2&lt;/font&gt;" style="sketch=0;outlineConnect=0;fontColor=#232F3E;gradientColor=none;fillColor=#7AA116;strokeColor=none;dashed=0;verticalLabelPosition=bottom;verticalAlign=top;align=center;html=1;fontSize=12;fontStyle=0;aspect=fixed;pointerEvents=1;shape=mxgraph.aws4.notebook;" parent="N-R3ZWtZ8l9Xppb5PnGK-21" vertex="1">
          <mxGeometry y="30" width="113.34" height="130" as="geometry" />
        </mxCell>
        <mxCell id="N-R3ZWtZ8l9Xppb5PnGK-23" value="" style="shape=image;verticalLabelPosition=bottom;labelBackgroundColor=default;verticalAlign=top;aspect=fixed;imageAspect=0;image=https://upload.wikimedia.org/wikipedia/commons/thumb/3/38/Jupyter_logo.svg/883px-Jupyter_logo.svg.png;" parent="N-R3ZWtZ8l9Xppb5PnGK-21" vertex="1">
          <mxGeometry x="80" width="79.24" height="91.8" as="geometry" />
        </mxCell>
        <mxCell id="N-R3ZWtZ8l9Xppb5PnGK-30" value="" style="group" parent="N-R3ZWtZ8l9Xppb5PnGK-9" vertex="1" connectable="0">
          <mxGeometry x="490" y="60" width="159.24" height="160" as="geometry" />
        </mxCell>
        <mxCell id="N-R3ZWtZ8l9Xppb5PnGK-31" value="&lt;font color=&quot;#ffffff&quot;&gt;Jupyter Notebook 3&lt;/font&gt;" style="sketch=0;outlineConnect=0;fontColor=#232F3E;gradientColor=none;fillColor=#7AA116;strokeColor=none;dashed=0;verticalLabelPosition=bottom;verticalAlign=top;align=center;html=1;fontSize=12;fontStyle=0;aspect=fixed;pointerEvents=1;shape=mxgraph.aws4.notebook;" parent="N-R3ZWtZ8l9Xppb5PnGK-30" vertex="1">
          <mxGeometry y="30" width="113.34" height="130" as="geometry" />
        </mxCell>
        <mxCell id="N-R3ZWtZ8l9Xppb5PnGK-32" value="" style="shape=image;verticalLabelPosition=bottom;labelBackgroundColor=default;verticalAlign=top;aspect=fixed;imageAspect=0;image=https://upload.wikimedia.org/wikipedia/commons/thumb/3/38/Jupyter_logo.svg/883px-Jupyter_logo.svg.png;" parent="N-R3ZWtZ8l9Xppb5PnGK-30" vertex="1">
          <mxGeometry x="80" width="79.24" height="91.8" as="geometry" />
        </mxCell>
        <mxCell id="N-R3ZWtZ8l9Xppb5PnGK-1" value="Data Scientist" style="shape=umlActor;verticalLabelPosition=bottom;verticalAlign=top;html=1;outlineConnect=0;" parent="1" vertex="1">
          <mxGeometry x="170" y="796" width="30" height="60" as="geometry" />
        </mxCell>
        <mxCell id="TVVWhgvMduf64u-HA2Hp-31" style="edgeStyle=orthogonalEdgeStyle;rounded=0;orthogonalLoop=1;jettySize=auto;html=1;" edge="1" parent="1" source="N-R3ZWtZ8l9Xppb5PnGK-4" target="N-R3ZWtZ8l9Xppb5PnGK-11">
          <mxGeometry relative="1" as="geometry" />
        </mxCell>
        <mxCell id="N-R3ZWtZ8l9Xppb5PnGK-4" value="" style="fontColor=#0066CC;verticalAlign=top;verticalLabelPosition=bottom;labelPosition=center;align=center;html=1;outlineConnect=0;fillColor=#CCCCCC;strokeColor=#6881B3;gradientColor=none;gradientDirection=north;strokeWidth=2;shape=mxgraph.networks.pc;" parent="1" vertex="1">
          <mxGeometry x="290" y="791" width="100" height="70" as="geometry" />
        </mxCell>
        <mxCell id="N-R3ZWtZ8l9Xppb5PnGK-5" style="edgeStyle=orthogonalEdgeStyle;rounded=0;orthogonalLoop=1;jettySize=auto;html=1;exitX=0.5;exitY=0.5;exitDx=0;exitDy=0;exitPerimeter=0;entryX=0;entryY=0.5;entryDx=0;entryDy=0;entryPerimeter=0;" parent="1" source="N-R3ZWtZ8l9Xppb5PnGK-1" target="N-R3ZWtZ8l9Xppb5PnGK-4" edge="1">
          <mxGeometry relative="1" as="geometry" />
        </mxCell>
        <mxCell id="TVVWhgvMduf64u-HA2Hp-7" style="edgeStyle=orthogonalEdgeStyle;rounded=0;orthogonalLoop=1;jettySize=auto;html=1;exitX=0.589;exitY=1.013;exitDx=0;exitDy=0;exitPerimeter=0;" edge="1" parent="1" source="N-R3ZWtZ8l9Xppb5PnGK-6" target="N-R3ZWtZ8l9Xppb5PnGK-11">
          <mxGeometry relative="1" as="geometry">
            <Array as="points">
              <mxPoint x="699" y="400" />
              <mxPoint x="647" y="400" />
            </Array>
          </mxGeometry>
        </mxCell>
        <mxCell id="N-R3ZWtZ8l9Xppb5PnGK-6" value="S3&lt;br&gt;Umbra" style="shape=cylinder3;whiteSpace=wrap;html=1;boundedLbl=1;backgroundOutline=1;size=15;" parent="1" vertex="1">
          <mxGeometry x="640" y="240" width="100" height="100" as="geometry" />
        </mxCell>
        <mxCell id="TVVWhgvMduf64u-HA2Hp-8" style="edgeStyle=orthogonalEdgeStyle;rounded=0;orthogonalLoop=1;jettySize=auto;html=1;" edge="1" parent="1" source="N-R3ZWtZ8l9Xppb5PnGK-7" target="N-R3ZWtZ8l9Xppb5PnGK-11">
          <mxGeometry relative="1" as="geometry">
            <Array as="points">
              <mxPoint x="860" y="400" />
              <mxPoint x="647" y="400" />
            </Array>
          </mxGeometry>
        </mxCell>
        <mxCell id="N-R3ZWtZ8l9Xppb5PnGK-7" value="S3&lt;br&gt;Capella" style="shape=cylinder3;whiteSpace=wrap;html=1;boundedLbl=1;backgroundOutline=1;size=15;" parent="1" vertex="1">
          <mxGeometry x="810" y="240" width="100" height="100" as="geometry" />
        </mxCell>
        <mxCell id="TVVWhgvMduf64u-HA2Hp-9" style="edgeStyle=orthogonalEdgeStyle;rounded=0;orthogonalLoop=1;jettySize=auto;html=1;" edge="1" parent="1" source="N-R3ZWtZ8l9Xppb5PnGK-8" target="N-R3ZWtZ8l9Xppb5PnGK-11">
          <mxGeometry relative="1" as="geometry">
            <Array as="points">
              <mxPoint x="1030" y="400" />
              <mxPoint x="647" y="400" />
            </Array>
          </mxGeometry>
        </mxCell>
        <mxCell id="N-R3ZWtZ8l9Xppb5PnGK-8" value="Copernicus" style="shape=cylinder3;whiteSpace=wrap;html=1;boundedLbl=1;backgroundOutline=1;size=15;" parent="1" vertex="1">
          <mxGeometry x="980" y="240" width="100" height="100" as="geometry" />
        </mxCell>
        <mxCell id="TVVWhgvMduf64u-HA2Hp-2" value="" style="dashed=0;outlineConnect=0;html=1;align=center;labelPosition=center;verticalLabelPosition=bottom;verticalAlign=top;shape=mxgraph.weblogos.aws_s3" vertex="1" parent="1">
          <mxGeometry x="700" y="210" width="61.6" height="57.6" as="geometry" />
        </mxCell>
        <mxCell id="TVVWhgvMduf64u-HA2Hp-3" value="" style="dashed=0;outlineConnect=0;html=1;align=center;labelPosition=center;verticalLabelPosition=bottom;verticalAlign=top;shape=mxgraph.weblogos.aws_s3" vertex="1" parent="1">
          <mxGeometry x="870" y="210" width="61.6" height="57.6" as="geometry" />
        </mxCell>
        <mxCell id="TVVWhgvMduf64u-HA2Hp-11" style="edgeStyle=orthogonalEdgeStyle;rounded=0;orthogonalLoop=1;jettySize=auto;html=1;" edge="1" parent="1" source="N-R3ZWtZ8l9Xppb5PnGK-11" target="TVVWhgvMduf64u-HA2Hp-16">
          <mxGeometry relative="1" as="geometry">
            <mxPoint x="770" y="608" as="targetPoint" />
            <Array as="points">
              <mxPoint x="770" y="825" />
              <mxPoint x="770" y="529" />
            </Array>
          </mxGeometry>
        </mxCell>
        <mxCell id="TVVWhgvMduf64u-HA2Hp-13" value="BigQuery" style="swimlane;whiteSpace=wrap;html=1;" vertex="1" parent="1">
          <mxGeometry x="693" y="1140" width="350" height="300" as="geometry" />
        </mxCell>
        <mxCell id="TVVWhgvMduf64u-HA2Hp-20" value="Google BigQuery" style="shape=cylinder3;whiteSpace=wrap;html=1;boundedLbl=1;backgroundOutline=1;size=15;" vertex="1" parent="TVVWhgvMduf64u-HA2Hp-13">
          <mxGeometry x="94.55" y="85" width="159" height="130" as="geometry" />
        </mxCell>
        <mxCell id="TVVWhgvMduf64u-HA2Hp-12" value="" style="editableCssRules=.*;html=1;shape=image;verticalLabelPosition=bottom;labelBackgroundColor=#ffffff;verticalAlign=top;aspect=fixed;imageAspect=0;image=data:image/svg+xml,PHN2ZyB4bWxucz0iaHR0cDovL3d3dy53My5vcmcvMjAwMC9zdmciIHhtbG5zOnY9Imh0dHBzOi8vdmVjdGEuaW8vbmFubyIgd2lkdGg9IjIwLjAwMTA0NTIyNzA1MDc4IiBoZWlnaHQ9IjIwLjAwMTA0NTIyNzA1MDc4IiBmaWxsLXJ1bGU9ImV2ZW5vZGQiIHZpZXdCb3g9IjAgMCAyMC4wMDEwNDUyMjcwNTA3OCAyMC4wMDEwNDUyMjcwNTA3OCI+JiN4YTsJPHN0eWxlIHR5cGU9InRleHQvY3NzIj4mI3hhOwkuc3Qwe2ZpbGw6I2FlY2JmYTt9JiN4YTsJLnN0MXtmaWxsOiM2NjlkZjY7fSYjeGE7CS5zdDJ7ZmlsbDojNDI4NWY0O30mI3hhOwk8L3N0eWxlPiYjeGE7CTxwYXRoIGNsYXNzPSJzdDAiIGQ9Ik00LjczIDguODN2Mi42M2E0LjkxIDQuOTEgMCAwIDAgMS43MSAxLjc0VjguODN6Ii8+JiN4YTsJPHBhdGggY2xhc3M9InN0MSIgZD0iTTcuODkgNi40MXY3LjUzQTcuNjIgNy42MiAwIDAgMCA5IDE0YTggOCAwIDAgMCAxIDBWNi40MXoiLz4mI3hhOwk8cGF0aCBjbGFzcz0ic3QwIiBkPSJNMTEuNjQgOS44NnYzLjI5YTUgNSAwIDAgMCAxLjctMS44MlY5Ljg2eiIvPiYjeGE7CTxwYXRoIGNsYXNzPSJzdDIiIGQ9Ik0xNS43NCAxNC4zMmwtMS40MiAxLjQyYS40Mi40MiAwIDAgMCAwIC42bDMuNTQgMy41NGEuNDIuNDIgMCAwIDAgLjU5IDBsMS40My0xLjQzYS40Mi40MiAwIDAgMCAwLS41OWwtMy41NC0zLjU0YS40Mi40MiAwIDAgMC0uNiAwIi8+JiN4YTsJPHBhdGggY2xhc3M9InN0MSIgZD0iTTkgMGE5IDkgMCAxIDAgMCAxOEE5IDkgMCAxIDAgOSAwbTAgMTUuNjlhNi42OCA2LjY4IDAgMCAxIC4wMDctMTMuMzYgNi42OCA2LjY4IDAgMCAxIDQuNzI3IDExLjQwM0E2LjY4IDYuNjggMCAwIDEgOSAxNS42OSIvPiYjeGE7PC9zdmc+;" vertex="1" parent="TVVWhgvMduf64u-HA2Hp-13">
          <mxGeometry x="207" y="70" width="70" height="70" as="geometry" />
        </mxCell>
        <mxCell id="TVVWhgvMduf64u-HA2Hp-17" value="" style="group" vertex="1" connectable="0" parent="1">
          <mxGeometry x="812.5" y="430" width="135" height="140" as="geometry" />
        </mxCell>
        <mxCell id="TVVWhgvMduf64u-HA2Hp-16" value="&lt;font color=&quot;#ffffff&quot;&gt;Google Cloud Storage&lt;/font&gt;" style="sketch=0;outlineConnect=0;fontColor=#232F3E;gradientColor=none;fillColor=#7AA116;strokeColor=none;dashed=0;verticalLabelPosition=bottom;verticalAlign=top;align=center;html=1;fontSize=12;fontStyle=0;aspect=fixed;pointerEvents=1;shape=mxgraph.aws4.bucket_with_objects;" vertex="1" parent="TVVWhgvMduf64u-HA2Hp-17">
          <mxGeometry y="25" width="110.575" height="115" as="geometry" />
        </mxCell>
        <mxCell id="TVVWhgvMduf64u-HA2Hp-5" value="" style="shape=image;verticalLabelPosition=bottom;labelBackgroundColor=default;verticalAlign=top;aspect=fixed;imageAspect=0;image=data:image/png,iVBORw0KGgoAAAANSUhEUgAAAfQAAAH0CAYAAADL1t+KAAABIWlDQ1BJQ0MgUHJvZmlsZQAAeNqtjT1Lw1AUQM8LQsEhRoji+EDQCvUjfoAd2wxFEKyhQ5stSUMqre0jffXjP+jo1qGL/8DZ2cFNcBL8C4Lg1MEhhUwigmc693C5FwwZKNUzLDjv69SrVWWz5cvCOwWWsCmyHkRDVanXj/mRr1cEwMtmoFSPvzHfjocRMAW6kUo1iA6weqmVBnED2GFXaRATwE6bLR/EA2AnmT8Bdpj5G2CnDc8F8QGYYcNzwQAwk8wtwJz9BVistAdhLL1aVRadcvlwg39Gx1cawB2o6/Qs6WhZUaoXy6N+tFWSuzvOATRbvsy2P08RgFh+zltO3sYrcHIPc9O87d/CpAQLd3lbc8DahsdxNEovZmeEsQe/zd8UMElHWAtWrwAAAAlwSFlzAAC4jAAAuIwBzPa7LwAAAAd0SU1FB+EBEw4FGAqF8l8AAISMSURBVHja7H0JnFtXea9GEyDspcvr3tKdR+G1lJa2lJekQBYnEBIn47FjbWPHTki8ZCHJyEs8M7pX0tiOszkhCTu0BVIohELyWMPSBihbAtns8czYCbFjz6JttM1I97x7rqSxpLnLOXeRrqT/9/v9rfFdzn6+//m+s1yPBwKBQCAQCAQCgUAgEAgEAoFAIBAIBAKBQCAQCAQCgUAgEAgEAoFAIBAIBAKBQCAQCAQCgUAgEAgEAoFAIBAIBAKBQCAQCAQCgUAgEAgEAoFAIBAIBAKBQCAQCAQCgUAgEAgEAoFAIBAIBAKBQCAQCAQCgUAgEAgEAoFAIBAIBAKBQCAQCAQCgUAgEAgEAoFAIBAIBAKBQCAQCAQCgUAgEAgEAoFAIBAIBAKBQCAQCAQCgXSTEOK55l7Sd9lu4hV+SvpGhkmfIJK+i991W9+7PN6+f/R4FJzj6fOcIz9+tvz3hfJvDf8k4y9lfEHGv6I0IV0un5HxF9U2/091/eDCat+gfYSi1m/e5envu/SscaVPKX3rp5W+Rvsc7XsQCARiirhrv9fdTrybPkT6/vnDxFv/yFCs9Bvrhdzf+ITCRT6xOOSLFm8IiMUb/PKvXyzc6BcXb/QLxRt9kcIH5HsfkK9/QL5/k3zvJvm6/Fu8WX73Fl+0cLN8/2b5+i1+oTAciBaH5eeG5f+H/VEZ4mJYfm6HTyzsCIiL8m+R/r1Tfm+nHMYu+bk6LO6S7+2W35NR3C3/fasc9q30V76/p4JiBdECxYgcnwL5GsWo/GwVlb/lcMbk5+pQHJPTFwmIhdOI0v8XI/I9QU6XqAa/giIjFjmedeJ9JQxBP/xFE/Gol02lfIpCQ5lWIASii2NqdVCpn9P1Jdft6Om6LIzIzyj1u1zfct0r7aHaJmj7UNoJbS9isYpqOxKUtqS0MaWtyW3OX2l3O+R7O+R8V9tmIVxpqzLktis/dwtty0qbFgtymy5W2rqQvylQ7QO0L9A+QfuGfF9G/kZ/Q9+R+5JYuGi9UPgbfzTzG/V97uy7JaUv0j5Z30chEAhEUwYPkP4/HJGWCVxWbr8vK6UrArGljw/tLz8eGi9nA7ESCe0ty6j8BsdL3Yu4yi/QPnRxW6v0p0qfqvax7Aa5z/ljSx+TBwzrZML//Vq//MMR4qV9FRoLAoE0yKXfJH2h3ZPLJC5bxe+QCfwjsjL5JVWiQ/uoglmSZIVSkq2TsmylyChK8q9U+a39Xf//uusx5TrRfkYtrKJB2AzhxBifU0Os+blF1rSRxvyqxdlcHosq4ajF2/x30zuxRYZ3i+p1wfyu1v1FjneLTeXT8C7RLrtFg/ayWFe2enW+ou5J4zvN6dRsL8S4XfG02+V71T4m9zW5z9G+R/tgMF4m8qD6Bfn/H/ULhf9b668bR37p/TvxP/qgySCQHpY7R0hfcE/FGpet8D8PRJfulRVHgloJCoFHi0uN5A1oA2WEunQybOU9SvBLtG8qlvy+UlL++z5fJPcG2ofXj0re/bsIiB0C6SV597tJ39Bohch9Qv7c0PjS/4QUd3LNClezHCwrMmJd6RUZ77dC6Ra10kbU81tkKA8r8TI+v8J7wPuumTIrcrSHItFvK0WG/9e9H2Ntm7rpYWjTrHVXNMhTzcNjlHf5b7FQkvtsmfZduQ//RO67F9A+/Y7dxHvp10HsEEjXysBAZQHNQKRK5GLx/NDe8uHg3rKsQJZKFTeflqvSrFtxkfMZI9fkosE9k+51biwy3GNx1fOmkcldyzmlsWgyPjPlumiyfhc54lo0mKJZNAhfd6DAGBZvu+PtCyumBOS+u1QKjdN1LeVJv5B/j9LXqfcNC+cgkO6Tqz5aWam+Xij8eXB86ae088uKoWQfqRkqMmKOIK2kbbH174r1FrrOs6LRPK+ZcmJMs6g3v89LoCYHIZr5b57PLnIMYhaNwlZ/V1SLUy8s1nhYBqE8/YSpvEvBcTrfvvQLv1Cgu+Y8a26t7VIBuUMgnWuVP0g8n7qJeNZ8utKhA/Glu+kKWjqat5dA3Y5FpKmj8r/YIXXh5jpcVCz24Hjpgf1fI30X3F72/ucI8ZwzAlKHQDpSrgxU5tF8wsJb5FH7vDxqr7rn2qFgCqQniGrZaiuYtNBbmUY3lJNZC93G/Ik6ceqF5Ug52tpPysoCuvFSWv77H6gu2Db0HcytQyCdJpdV95IHYqVbFatcLJSsu/MAAOjAQWZJWfQ6viRSnbB9e+NBURAIxMWy5gPH+9fvyPSHxpe+LXfiNlrl9UqlVyz0aj6N8tvO8nBDXWilgV63mj7e98VCBbxhab3jzropU10g64Tvb4qUXjIo6whoSgjE5bLpHumM9aOJXwnGS6cCscUl11jlIHQQOgi93XVDgrGlpWC8PL8ukvvVq+6RQOoQiFtl8/1S/9rR3O8M7Svn/VEXkTkAAG4B1QlLso4oro3k/2jT/WWQOgTiOsv8g6T/ij2Z35c76mL1cBjiSssVFjosdLdZ6NGesdAb5tU37C+XfWMLf3HVh3AmPATiGtm+T+q/Qsz+5tD+ZTJ3L9GB0EHoumlok8s96hJCb+VuELGgkPr6sezrr7xXOgOaFAJps7z3Dql/3WjmtbJlnnMtmQMA4NYBaEnWHYW1o8nXhUYxpw6BtE0uGyHe4bsWvcF46WTlQypQUAAAcB9CsyTrkJnND5D+87dNYEsbBNJKGRkhnreOVA6NCcUXvxWILbp/jzlc7nC5u3eVO9FNTyvLsT11Q6gOCY0vfZfqFGEX6aOnTEIgkBZKILq4OzheIprzfwAAAIxz93SfeiBW2kN1Cz0yGgKBtMLVfuCX/f6x3JvpN5HlEX0ZyggAABtIvUx1ik/IvmXg0zhNDgJxVOiHFS7Y8ozS0ULj5ZNYBAcAgM0u/3JwvDxHdQz9QmPts8sQCMQhCcaW9leOdO2geWnMoWMOHXPoHVA3BRKML1L3+13QtBCIg7LmwPP9fiH3R6F9cLUDAOCclU4/5uKLFf5sMArXOwRirxDiueqK71ZWtY8vPUa/ddyxlissdFjoOMu9A/rJYik4Xvox1TkD/03wyVUIxE4JfZZ41wu5i0Lj5c5c1Q5CB6HD5d5B/aQgBamuieRWr74DVjoEYovQ/aCrrj1UWwh3yifmSx1NdCB0EDoIvSMInZ4iF9pbWSC36k7ixd50CMS6v1351ycWdlS/bS5h3zkAAK3Zm063seVHoIchEBtk7ciTXt+e5KuVPefRQkmdzJs/LlHQH3lrXlMLR+//emEXOO8b3Ssw5penLIoM4ZiNt7lc1X6LHPVUsFBWPHEUGNtGkbOOeOPltCaZ02QljgJHP9J6t8DZj3jqscDRhvTqt9BkpZfIWiHxq6segesdAjEt91xbrsyf7136TCC2WNZXDkYEpPaM3vtGSqhggKbnGlyJBcb0FBnjLBqknzVeVjLXSYeSz/r8asTXcL9oopyLJvNbOJ1G7vrlLZuicTmplcuKe5zpMHxfJS2q7xRVykqtTTPGw1LGqmHytueiQZ8qcuiCgnIs7NDepc9TXbTue1ggB4GYkk33lr3+SP7N1eNdy+xKCmgfiigD1FnXQTlBLpL9G/8ufJENAuGeN7/i0cpIODi+9PRpVzsAAEAbUFkg9yzVSRvuI330A1EQCIRRNlz0c69PzK+nBzxU9rvWOlaeLP+quQmV6/XP5MkKN2Tt3fr7um5ZlXv1cayIv7DyXvPfanGrPd9wTSfN9WlSKxO9vDWHyeKyNYqrvtxXhJ9Xv8aSD9Xy1ioTnTrSC1O1THTSr/W32vMrykcj3Obw9J7Xa/9a6dNLv9a7mnXMed9MufD0E730a6VFL+yq651umV0vZINbvwC3OwTCJHRryNiDxHvTbtInk/mC3KngagcAwAVWer4k66TchfFy38AaCQvkIBBWkS218WC8dl47h4XoXmVAekTpEW5LqBfrgscL4XT+dD1VOmE5UY5u6icqaQnGFkkgvri/MjMItzsEoivb7iJeXzT3mxVXex5z5wAAuGnAqpzzHhAWfvsfPggrHQLRlPdUt4QM7V18mG4V0bTOYaHDQoeFDgu9TW05EC2Wg+NLX6e66r5RWOkQiKp8YJ/U7xOybw9VtqnBGgAAwI0r3svKdKCQO2vLXbDSIZDGhXADxCN8vnIKU2hvecoHVzsAAO5GKTRefo7qrM33021sI1DkEEhN/veqL/X5Itmrqke8kq5zYcPlDpc7XO5d4XKvXVMOmxGyW9+/5SFsY4NAli30z0re7QI5IzS+VPRHYZ0DAOB++JRtbEtLvnHysq13Eq9sqUOZQ3pbDm6pdIJQfPFgML7YvRYvLHRY6O610Cvgt9ClnrXQq4cgBWNFSdZb91Md9sh26HNIj8umeyWvP5L7wxDvee0gdBA6CB2E3v62XB7aWyLrhYU/Dn2M4Jx3SO/KPddWrPPg+OJ/+aNFnAgHAEAHDmKLpdDexceoLosPkz6CA2cgvSirv0C8fiF7fjBOrfN8d1u8sNBhoWNRXDda6IqnonLO+8JFex/BOe+QHhP6paLVq5+obFMbL71o6rx2EDoIHYQOQndDW64tkNtbOkV12tUfJX10Ky4E0jNC3VK+SO7m6hGvOEgGAICORnB8ifjEbLiq4aDkId0vdGvHBXcS74a9+VfKZC6PfnPYpgYAQNec874uOv+qtSM4QQ7SA/LItuVtap8MxpSFcLDOuwJ5lAHQ830gQLexjS/+W9UNCYUP6W5Zc0Dq90dyb1BOhMO3zgEA6KZBLbXS43QbW+ZNA3tgpUO6diHciOfaT1RWgIbGF3/qFwulilWX17Hy8h1maeZ72JLNd2C8eZR/y+PPuzh/ebvaVCkYLz5Jdd17v4RV75AulcDOp7y+SPay0wvh8gYdKq83Eiba7+Y5FIFdAwq1d/Maq3fzTfcN3tW9x6KE8iaVZJ5D6eV1Vgar5Leh/vM69VdgaCN5vnJYThtPPeR12hnvwDSvUj5aK86thG3UhurKQyyQlfHkdVZ468XD83+9fmK1/1ocaDe0ZY7+pWxjKxFfJLN2w6cJrHRId8nAg4Si+jW10rxPyJUalYoeCgxK1Qysvs8bbsGG8AptyI/Z9LKQb8HhMrezrAo2p7PAUHZ5xudZ0lsw2WYLFsqlYKHdONUnCyaeLXCH5RNz5aHxUuptl5O+DSPPec8ZeRREAOkSqS4OCUSLe4Lji6Sh8S+Pfpv/zpGGazXLRfl/rs6SaepM9deb/25+RiuM5ueN4mC5V8vPirwYlIVWuvXSZJQXvTQb5d3omeV054hmmpX/54hmfvXC1kq7VpkY5V+3PHNE952GNOeIfhpzRLVtqIabI+rtXu35XFNcOfU41MJbTnOusV8Z1YdeHlju6/VDrXzy9BO99Bu1bdY+aDyQIHQbm1/IiyAASFfJ+w9K3nV75l9XXQhXcoclCQAA4CCEfDm0d4kEhNxvbL0DrndIF0jtvPbQ+OJ/BJTz2tHRAQDoDQRixZKs+x5Sph5xLCyk0+Wq+8pen5B9SzC+VHHpoZMDANArUBbILRHfWPZtG0axjQ3SuRPnnoGHa9vUlg7JjVvd1d48B8jcUUy+17aO3WHptZpPo/y2szzcUBdaaVDmsy2mj/d9vTj1wnKiHN3UT1jbsgHoArnQ3vIE1YX0nHf6LQsIpONkaNUvvL5IJhSsbFPDaB0AgJ5EZRvbwsaxH4PMIR0mdIvGdXcRb3DsVL/ckLOV89rRqQEA6FXXe47OpRfWxYh3YBAL5CAdKIFoYX8wrmxTI+jUAAD0+AI5IuvDOyozkrDUIR0i2+6SvL5o4Xcq29RyWNkOAABA59LHl8j6SOb3zv+6hBXvEPfLO0Y+XV0IV/wq3bKBjgwAAFC10qPFUnB8UTk27r5RWOkQl8vau0i/L5I5i45EsRAOAACgcRsbnYb0RbLv3P5BzKVDXCr0vPbrttbOay8f9QlwtQMAAKgvkCu9QHXl5o9hGxvEpfKPhHh8QvYa5Wtqagvh1PZzYh869qFjHzr2oXfxPnS18+LpOe+ylX79xqs/hLl0iPtk1Z2HvFfuJWeExpcWsU0NAADAyEpfKgX3Fs88+1bJu/l+WOkQl8jBLdXz2uOLHwzGinyjb1josNBhocNC7yULvQISjBfLss78CNWdHx8CoUNcIps+KHnXC9nXhyonwmHuHAAAwNj1XvkaWyT3p6GPSf1gEkjbpfY1teB48TG5kYLMAQAA2EmdniD3P1SH3ibSBXIjIBVI++SSh4jXLyyswtfUAAAAeJFTznkPCAvv3bbp59jGBmmP0K0Wq1c/UdmmNl46WTkRDoQOAABgYoHcLNWl9GtsAwOYT4e0SXzCwnDlEBmGhSNYFIdFcVgU58ZFcRXwL4rr7n7i7KK4BgTHF+V6z+6saFUQOqSFQrdYnL1nyntlfOZVMplLPjFbMt1ZG67lQOggdF33ZPcRes4hQufsS1jl3lZCr53zPiRkXrN25Em43iGtk0e2LW9T+5dArEBd7cQ+pZyzNB9lHFaO41nWOHMW0mRnfq2WjdPv5mzKf85C2nI2DxDsqL+cswOYFs0FG5dtzmKZ5izWb85E+7ajjnJMZReIFsvB8eJnK0Y6rHRIi+TikRf6/UL2jXTLxemvqeUk9t9cU+dk/WVRikbx5k3+5iyGkbchfrPv5C3kN9/ifFoJi7WO8g7Vb95Cu7azTeRtjC9vsV3ldNJs9H+esFjymzOZ5rxDfb8pTDFfDirTlwv/Z80eCVY6xPmFcNd+ovLZv1C8+DjdcqHdKVWw7Ao0uMYC5vfyJu/ZjIb0Ohlvvk3v1uczb5zfFffzjMrf7rpoB/LaaRDzZOU9zvLgzZ/ics8T9rDyTfdsbHMr0pFvXz+p5c/R9rKC3EvBePFpqmPfJnwRx8JCnJXQMPH6hIXLTy+Ea7NibGv8AIA2Ddg62FS2sfmEzPpNe/A1NohDQr+mtubB2tfUlpI+IVtCBwQAALAZsm6VST1zc5T0bRiZ8p6Dr7FBbJfqIo1AND8ajBcJOh4AAIAjIHQbW0DMx0A8EEfk/QclbzCafZ3iao/mYJ0DAAA453qvnvOe/M0td2CBHMRGWT6vPV78YiBaKKPDAQAAOItArFAK7S1+heret+/8MhbIQeyRK+8te/1C5q3B+CI5fcQrHUVmieZvM+rvN4xE666p/a0WZv3/1cJTe6Y57Obw9NJlFAfLPa34jcqC5T298tBKo967enk3esao3vSuseRDK+16bcuonFnKUy/9Ru1Sry8YtUu9PqQXl1aZ6sWhV39Gdcxz30y58PQTvfQbtW3WPshkZTPErRe2mFNOkAtEMv+4IfI8rHSI5Ylzz8DDpLJNbXxpgp45jJEzAABAa+ATsuXQ3tIk1cGiSLwDAw+CliDmJXQO6fMJmQ3K19TELDoZAABACxfI0XVLsg7efNYNH4bbHWJO6FaJ6+4i3mvFdL/coHJ+0YZtakYuJ6thuXqRS7Y3dgYYuVndUB5uqAueaQWn82dl6qmb+wlrW3baSpd1bzC+WLx671z/wCAWyEEsiD+aPxCMF6XKee0YMQMAALRhgRwJxop3128hhkCYZZtsnfvE1O9WToTLYmU7AABA+7wFyjnvwcjCH5z3tTJc7xB2ecdIbSFc8et06wQ6FAAAQJut9Mo579+luvm+UVjpEEa5/IDU748snE23TNCtE+hMAAAA7T/nvbJ1OHNucOQY5tIh+kLPa99+Z/W89vHSMZ+wUGbag4196NiHjn3o2IeOfej27kPXcL3Luvk41dGbP0b6RnDOO0RP/owQj0/IbAlR6xwL4QAAANxkpSvb2PyRzAfevz4CwoJoy5rPPum96tbjL5XJfMkvLmAhHAAAgPsWyJVkHV0O7Mu+4uxbp7yb74eVDmmSg1uq57WPL94fiDl0Xjv2oWMfOvahYx869qFbPmwmKOvoYKz4MaqzPz4EQoc0yaZ7JW8gmvnjyja1HKxzAAAA97rela+x+ceyfz6w//l+MBhkWU5/Ta3wQ5A5AACA25GlpF4KjRd/THV3ZJeEBXKQilz8JeL1RdIX8Z/XnrXuTmu4lnXANZd1l/vOlnRl3alg2uJyz3amW7cjXO5Zm1zuWQfrJut8Hbl2uiwrKee8RzKXXLKT4LCZXhc6olu9+onKNrX40kzlRLisTkexk4SyHM9k7Sce29Js9K6ZMLKM+c86FK+ZenFigGJHmrM2t7esA20w2yKyylp4LtvCNGQZ6jHrYFqzNukLO9qxXpvJKue8y6Q+r2w7HqNfY+txK53gXFyPT1jYoWxTU0aiWakRWp1I61p2RaPTfk4rPJb7OY3nzaZRLw1ZnXdzHOllCZflfs7E+3ppyTHcZ40rZzKtrHWW5ahH1jpibRss4bPUs1FecpxpsdKPsoyDoKzJvmKmPu3oO2b0Bks7zHHk22x58SEYL1LdfWuV0XqZy/t6ltDpVoez90x5Q9Hcq0PK6UP0a2pmyYGxMy27ruruiTnCRxQ6YXGRac5AieqFm+Mn0hVTCyz5zXH+n5eQWBUjR7y1QaFqfvXaQtZCvJwEoDpwZSE33sFBTpsYtdrvsvubl7xYy1albdA+2PBOTqOsWOIxM4BTaT+WCNzsYDSrrmOW08TbB3n6Vda8jlEOm1kigUjmtW97oHe/xqZwea8S+iPbagvhiv9W2abG2pEAAAAA10DM0nPey6F48XO97HXuaUK/ePR4fyCa/cvlr6mJ6BgAAAAdSupl6mn1RTJ/PbCn7AWh99BCuKs/svw1tZ/TrQ/MZC5aG0UahoVBhT1l61Qdtqu+RAtpEF2Q/l5sg6KFMhfb1CZFC2GILih/MUu/xvYs1e1nCb236r1nLfSb1pE+n5BZU7XOScc0WgBwi/IHUJZuK3+RLpCjOj0dGNr1cy8IvcvlnJFHPYOfq31NbTHlExZK6AwAAABdQuqyTpcNtYV14xnvhpEp7zk9dNhM71no1bwGovlIcLxAlIVwIkb0AAAAXQISjBelgJjbCwu9y+X9ByVvYCz1a1VXe6lhzkhcIGouHMvz3lpxiBrX9H6jOumNcrzLOocmqru1zM0pLjQOnkSO+UZR53mRI19611nnPEWjMqvWS3N+1dqClTRbmu+spZGjfu1oG3r5ry8/tbZtVO48+RMZ44wa9DO1vmumjkSG+KIW2rDZdtXclnnq12y8UYN2JRq0iUq6lXPeA5H0b229o3e2sfUUodfOaw/Fi1+iWxy4SE+vg4oWCICnkfMufnLqXdFEh4yaGFyYJVYjJcCreKzUp2gxD069G3WgPZt51+n8OTRP62g/smNxo9VyFm3Ig9iC/qvVB+k2tlihFNpbeITq/H+4pTcWyPUUoW+6u+wNCJm/C8aKdNRZXtloVCwG0WRnFtUbWYPlIKrEK2o30JXXdKwQqx3DDCkalp2ad4KBWPUUjshIqKLJgZnIUTZqFnrUwMPCS6iiyTrT9CJYICerbUWtLzRby1r9yDC/KhalqAGtOEUNvRA16M+m+oaGhc7SJkWGutf6m8dCb0XbEDn6pKjjealek403sl5I/9ONB4kXhN492fQMPFwZoQXji0eWXe2inguO4dfMO1Eb4tWLX3TwXbvKSjRBuO2qoyhjWYmc8fJ4fqyUs1P5tTPNPIMxkTPtZj0yoo1p5i2jKGO7crJPiBb0hmhjGxEt9GcZPiFTHtpbmqa6f02k+8957xkLPXTWT/t8kdSmkLKlYYHN3R1lGNVaeVd0MF6z88hOuOpFDsvb7MJBFqVul1tYtMl65pme4HGh86bRqttXtKFtiFnrc8EiZ3sWbcq/mXMmxKy1KRIrrnsrZ2M4OTUjMgyqeNpVFfQbHb5I5v3v6QG3e9cTOt2ycN3dxLvpQO6MUHyxQLc0OGJhWBk1m7GKojalOdqGd8248e2oq6j5kb6peKMW0mx3+ZppV1ETZWN3f7JjcafoULuK2uARYnU929GOnW5fvNY/q5UfzVr0LNJtbMXFwG2FM9ZEunuBXM9Y6MFo7o5gvFD78ING46qbd3MMKnGYjddKeqNO55Mx7+2Ck/lfrhej/LawPKJurAutNGjMZzvVNxTCoF67Bf6wogsO1BFD2qOtriMX9V3e/EfpArk83cp2T/3WZRB6B8q2u4jXF0n/fmWb2kJZVZlodaRoq5QYp/LRHRxY6BRRpxUIY/myjP5dTfS1RVQLRD8PGoswjawaW+rbgDCjNpZdlIN06xeosaYjytg3DElUb4ChVUcMA48oR9qjnP3E7jphIfRom3WOqXwvlIPxRRKMpF4vfE3qA6F3oLxjpHZee+GbgWi+1HICiHbAaDbaQvKLumiE72S5Rltctu2q32iL8hNtU31G22dRdmzbd206F0hAzNFz3v+bcsKXRwkIvdNk8HbS74uk3km3Lqx0p1m0lNtlodc3VMFlbrBOcrm7wk3ZxvJwou1E7WoPetYya7y8+dOJU6usok7VoZv6iUtd7ibLUiZ0EhDSF/zj7u78GltXEvrAg8Sz/draee2l531CpqQ5P9aJI9GoS6yBKKyBtnhNol3m6XGy/UYdssijXdCvWuW9cE17ljlAyJRlTniRcsOle4h3pMvOee9aC/1MOU8ykW8Pji+S5YVwRqPuFdeaR+11o9Xas3q/9RCb7mvGW/e30DQ6Xg6HhlkXh9qoVFBJa3NeGtLHacUJWuHqxCmoxK/2rlb+68tAsxxZ88Ja1yasXNU20ZxmtbJXqzOGPBqWiUp+VOtCr4412o9mn1CJrzmdWvWr1mc0+5BK2pfDaLYwVcJb0V+b+pug1a7q+6BWe2ruuzr1qZo/vfao0k+02nhzPRp5ZwSDsPV0hpHnQzDwULKErVkfGmlteo5uY/ML6Zu7kfe6ktD/8rO/8G44kHiZXHHUMi917FxTtMes1l5DtMfyE+2wPtaLnqNegPI1tsXyldHcK7ffTbwDI091E6H3dRWhH9xSyUswXvxQIJYvL7taTo/smkfQelZc098LGvd4/m9ooavEqZGOhvywpIMlbL2wsozlobEFSFApc6ZytqPcWcvDTLwL0sp2ppffrHYbVC1nozpZ0HlWIw/LbWfBZP1mLaRZpw8qbtEGy99cG1zRNwzqc6U3QicsTZ1ionwWJHZ9wNoOWPsvRx2tSNOCiT5m5v9Zi31D3UoPytwQihc+SbnikW0EhO5W2XRv2RuIpP+kshCOntfeTFxqf2tdU3uGhRAMiFg33ixD/Kz3jd7Nmgwjq/FrJj9ZzjxlOcJaaFFZspYPa9vgzYdeXWYZwslylDFLfbD0G568ZE3UUZaj3LQGZ1bbVdZke85y1BFr2zarV7Im4luwkFYzdWsq/nLV9f6Ggf1SPwjdhVL7mlowXvhRhcx1Kl7IkpXXmkfbdjSoLEe8vGHpvZdtYYdhDKvBYrU7HVn3vFurlxX1Y9QWsjYOUAzA3OYWnGkLevmvzEsTS3XE1TeUOqtA7dkV3oyGeOxvz6ppb1V/1qgjW9pLtkU6yEhPLg9SSqF4/meUMzaHHuvrhgVyNULvio32l3yReH1C6r30AAFTnaYVSs7OeNuilDuNRNqYT6P8trM83FAXWmk4vWitdfkTdMhZLyyhy/sJa1vuUL0TkrlifSR12fv2dAcHdgWh05HVwKXVbWrxxVm6NaEniAMAAAAwDbqlOTS+mFC2O491/tfYuspC9wnpXcHKITIEjRUAAAAwQjBeIIFodqTKiCD0th4iM/KUZ9XdxBuKZ16rLHIQa4fIAAAAAIAhlAVygUj6dW872NlfY+t4Qn+6upAhFC98prJNjdE6FzKE6Zrt8zk2xtuK9Dqd966cQ6/m0yi/7SwPN9SFVhrodavp431fL069sJwoRzf1E9a23OF6JxDN0W1sX1g+nAWE3h5578hMf0BIvblinS9g7hwAAADgJf0yna71RTJ/Mzjauee8dyyh04VwV3+k+jW1eOFJugUBDRMAAAAwiVIoXjxMOeUsgXILAaG3Um65gvT5x5LrQpVtalgIBwAAAJhfIDe+RGROGdoQ7kxO7EhCP2fkUc/g54iXjp9C44tpn5AumXCxYA4dc+iYQ8ccOubQMYde/yzdxpa9/MBS/5a7O+9rbB1J6LVFC8FYXpQB6xwAAACwAyQYL0gBMXsbLPQWycaDkjcopH69uhAOc+cAAACAbQvkhii3jKV/J7hnuh+E7qDUzmsPjRe+HIhmy7a6YeByh8sdLne43OFy712X++ltbCWZY75GuebtOztngVzHEfqVB0tev5D6+2CsQA+RkUDoIHQQOggdhA5Ct7s8Q/ECWT+WOGvw+uf6YaHbn1TPO3d+pbpNbXEKJ8IBAAAATsEnZMqh8aVjlHPWjEkdcc57R1no/+cC0idb51cpX1MTMu6xlGGhw0KHhQ4LHRZ6N6xyb3g2NF4k/kj62rdv7wyO7AhCP2eEeK67i3hDozNnhOLFIt1agBEkAAAA4Cwy9LCZpbU7T75kzX8QLwjdRglGc3fTLQVyIRNXWcqw0GGhw0KHhQ4Lvess9OoCOUkm9fuqjOl2Qve6ntC3UetczPxBqOJqx3ntAAAAQKusdOWc98BY6o8iXy33gdAtSGXLgHJe+7fpVgJLK9sBAAAAgNfCj2ZLMgd9n3LRl0cJCN2sbPgU8foiyXfTLQQgcwAAAKANVrqkWOmR5IV/v8e9c+k1QnddAgceJJ7t11bSFRpfesHUee0AAAAAYAOh+4V0ORRfPEU56dI97jzn3bWEXluA4Iukrle2DjQshMtYqxhL91vQcDoyXqfqJNOieOwov0wL8m9nPWc6X8l2hB6w0oYzHaBbMg61x0wb06x2P0NCyjfTU2FY6Jyy5rOS98qR5JkymZcqC+EyTQWt9avWIDJNjSNTt5oxY7AakjW+jMT0rhJH03VBbbDC8LscllGa1H4zJvKZ0bnOUEYr8pnhSGNGo05ZyyzDEa+RwjH4VV0ZzNgWmPPOU2d6dcFaZmbaRoah/aqU8/KK8wxnfav1KaP8ZVRWuTfFqaYrVPUIQ7nrtkeetC8YxKX3DIe+aGjLLANPg3Lm6lcLDGW3wKEnWZ/Vi5d+ja0obYqlX739buIdGHkKhG4k925ZPq/9I4ForszeWM2OAlkaaCvizRgMDBY4iZvnXaM0ZyxaFhmekXAL3rXDksrY0M5aneYFh9JoZz/K2NAHWdtGxqH+yzJAs1PnZCxYvK3SORmH+6Bduk5vsJAhQZmTZG76F8pRj2wjIHQj2XRv2esbS/wZXYRAtwyoj9QtQs0CMLQKWh2vibDcjE5Lr9V8rsjvgnvKgznuhdanQddCd6itCVXwhiV0eT/RbMtdqncYn1WmgYXUGwf2S/0gdB355P7lb53/xDEyt5tYQeggdDNKsCMIPdOhhJ4GoYPQHSN0eaBLt7E9QbnqsoufcM0COdcR+tvW/Kc3ICQvCcaKvaH8AQAAgI5DSPlmenLgkjH3bPt2DaHTEc7AJVJlm1p8cZ5uEXB21KYygucd1bc73lak1+m8d6WFXs2nUX7bWR5uqAutNNDrVtPHbaHrxKkXlhPl6KZ+wtqWu0Xv8D1LF8ilKGdd8O5DXhC6ivgjqVurc+ew0AEAAADXIhjLk4C4MFZh0+MgdOUQmZGnPKu2Ee/QePZXKnvO06WOspRhocNCh4Xe6RZ6BfwWugQLvUct9Mqce5m63tePnvq1tx2UvCB0WZ6uLigIxgsPVrapmbDO6yuivhE2g4dYtd6pv673qxa3Ubxa8TWHqaf4tJ5pDlutXHhcjVp50otTLX6WejR6j9dtylrXZglJr970rrHkQyvtem3LqJxZylMv/UbtUq8vGLVLvT6kF5denzVKv1F96OWB5b6ZcuHpJ3rp5xlospY561QGi/5jSR+PzjFqp0b62aCPBcRsORQvPEQ57BM3vwWE/t5bX+j3C6m/qlrnZbhyAAAAgA7xAEjBWIEExeTfrhltL5e2ldDpQrjN9y9/Te1pv5AptdUNA5c7XO5wuWNRHBbFweXOj1IoXpygXHaWQDmN9KaFfvPg9/t8kcT6ykb9Fi6EA6GD0EHoIHQQOgjdFl1c+RqbfyyxccPO9m1jayuhX3j3s95dd5M+2TrP+IV0qe2VDEIHoYPQsSgOi+JA6ObioYfN5Lffmjpjy93t+Rpb2widVJf4B6O5WDCWwzY1AAAAoJNBgvG8FIhmb+85C33j3ZI3EEn8r1Blz3kJjQEAAADocO8cPWyGhGKZ3x0ame7vCUK/59rq19TihUcC4kLZdrcKtq1h2xq2rWHbGratYduak9vWNN6RLXSZ1PPfoBz3drG1C+RkLu9vOaGHPrzk9UeS/0hP2cE2NQAAAKCrtrHFZW4TEudcfulUfwvJvK/FFjrx/O3Wx2rb1I62fCEcFsVhURwWxWFRHFa5Y1Gcw2XvE1Ll0PjSc5Tr1oxJ3oEB0o2E7vG8yUP6/GPJ9ytL/J1YIQpCB6GD0EHoIHQQehsJnUI2Wokvktz2+ha53FtK6HQJ/5a7iDd4W+4lckYXK9Z5Gu4ZAAAAoCsXyAXjhdL143MvHfyc8xzbFgs9GMvdE4zl5Qy3ecQHCx0WOix0WOiw0GGhO1L26doCOXrgzANVxu0eQg/ume4PjM69vnIiHF0Il5ZA6CB0EDoIHYQOQu9Gl7vCcTLXyVY6CYrpP7nm3p94W0Dozq9yH7+ldl57/rt0Sf9pMtf6VR/tqD+j925aO0zlmNm0QWWmdeJOM43QVoRjGK9RPtKnodr4NJ7VLTuWPKXZ8qf3rmr5ssSb1nknzVFfPHngqd/mOm5WgmnG8uCtI6P+k+ZQXCzvGrWrNGPZNffBpjzR66plx1E2K943qN+Gk+LSBrqioQ/qtwXmMtFLO6vuS5vQm0Zpqea94VjuNLelyt6uzObXqK2n2XhFTT+bzsNyOygF4/n/oRz4pZFS5xO6/1+I1xeZP48uEljZAVgbZdpiIzVqcLzp4OlYZuNPM4ZlpkNnLBAHK/nypiNtU93pKXKWvKVNKhozgyYrhM0yCE6buMfbjtImB3pG9cTzvJl2ZUVf8PQhMwOftIX2k+YsM9ZrRmVpVYemTehlnrSaeZcnDxrPKee8U+5LvPfte5zj2npCd2Sv3MCDxLP92kNKBkLjS8d9QqrUSFRa1qQZZGx4PsPxToYx3AzDe3aGxZP/jI3lb6bMjOP1UQjVX8AFyNj4bsbm8FuQdqGV/SRjk77L2JCuVuqIDIfuYkkrT/g89zjqiW5jiy/OKNvY9jhzzrvjhF6TgJC6MRRXDpEhrSFrBggqaRHMpq/V8WZal16n865Tv6FYRloXSUsX7kxJF+xIK1i1g/5dQ7rueuXeKpXrp99LN4Wj/W7l/+mGd1aGm9K4lyJNvxrhp0h9PLX7xvloTltK9Z3mMBvvVdJ2wXI+1PLSfD2lci+l8qxaeCm1d4hGuKQKnbjSRnER4/TpId2UzsrfF+6kpC5bXNFml7uN+sqxfm0iXUKKuC5NZvPQsrLPqIareKgjqZ0da6EPjkjedWNzrwiNF8qnt6m5hVxUKpmn4m0ldJPxdhyhs+WTWkKBaEZavSclffzhvPTUxJJ05OiSNGESVt41CXKk8VfzueY0OpnWI8dOQ0nbscZrrYZWGqrlQpwIW+f5FWWkFtYvDi9J934hL12yiw44HbLYW6GHeHWMm9LkpJ50UqdWvsYmh594zVDIfte7o4R+75bl89o/Hohmyx3bGICWIyBbP1vvzEiLi5Ikt036jyT/AwCuAG2TmQVJ8kcrpI4+CzCCVM95/zTlxq9sIZ1D6JvuKXv90dRfKIsBxDQIHWACVZCDo2mpXJKWlScAuA1luW2m0iXpfbuSp93vAGDsfZHoF0YDQvJNlx2Q+juA0InnrL/7orJNLRjP/cy1ZN42l7uN8XaaG4whvZTMP/9oobMVPv23/tfouXam0Q3lpHbdavp439eLUyes2/71JFkfsdn17iqXe6oLXO48c+gtmXYtheL5X1COvOzyJ2xbIFdP6GfYOVJ4+9qjdJva6mCsQDAqA3hAFx89d7wE6xzoCPzw8Yx07g1HHVz9DnSflZ6WgvSAtUhi7Xt2Vs5osZHQz7CN0OlIY2BM8lbnzhN0qT4qEODBqnBKOn4ShA50Bp54Jiu967ppac2OY+i/ADPoFm6ZI9OUKy84154FcrYT+vJBMpHkaOV7sC5ehQ2XuytdXxfUCB0ud7jcW+tyl4jEH9bjTy/IhD4lE/pRac3OY/ZY6nC5u9/lbkN5BGM5EowuCHad815P6LbMoQ+FvuP1xzKvCymfRk2VOq6SQeggdBA65tD5CJ0sE3qN1EHomENni6tMuTIkJH797w9KXldZ6F9Z3qaW+3x1mxrmzwH+OXS43IGOc7nXEbpdpA70xhZdcaEcjOe/TLnzEze/xT2Evv22cn9QSL4lNF5/XjssdFjosNBhofeQhV5P6gIsdFjoxlY6nZ4OROb//vJRa3PpthA6XQh3+e4nvJVtavlnXHciHAALHehqNB/60nYLfZnUj8JSB1hQCsYLk5RDzx2hq95Jey30mwe+1+cbm/crc+fNo536EV79/+0e/WmF2wweS1kvvc1pV/tVi9soXr3yUQtLKzy9tKqlj3e0qpcnvTjV4q9di1JCT5I6C32lpVuvTq1YWWr/b47HioXZ/KsWvlacRvnQSrtWmRjln7U89dKv9bfa82rlY/BcjbErV+nfdU+QFWlveLbyX4mo1odW+o3rQ/n/z57KVC30adJI6Mv/Jz69vqSnI/T0FYse1dITRvrWKGw9naGnJ1j1H0v6eHSOnj5k0c+s/MXDCSsOmykQ31hi81991vw2tiqhv8Sj/GNSLtxCvPFPPdEnJyjr+oVwQOdY6LA8AR2LnP4ef7EgffLLs9INd78gXRl/Xrpq3/PSng+fkL75g5SUz5fab6HDUgfYDVK6ja2w9fbCGVvuNvc1tnpCP8PkiED5DUZz48Fo1sLX1AAALnfAgMirvy+cKCgEftbWSenSW6al9buPVrDrqLROxgU3TkvnySR7+2dOSVLZ2SOEH39mwZjQa6QuW2Lo44CWByAYy9GPUt1lh4VuitA33l32BsfmfjM0rrjaYZ0DIHTAUTz07YR09tYpybdbn0AHZQK9LHxUuujmaWk+seighc5I6A2kDmIHNKz08UUSiMz9fmhkqt80oadIitPlTjyfvKm2TS3/1UAnfnwFq9zdvcpdwir3Xl7lfnoOvJHMz5XJc+1OBvLcMU0GZEL333pUesf2KWlhYUm/Tdm9yl3X/W5A6ljl3jur3FcgUxqK579FufWAyLdArmEOnf6Hh9JXj5a8ASHxT8FYnmDECdh5ljssdKB5zvyXxwvSP2+blNbuOspOnjIGZFBr3j92rGH+veUu9yYYkjrQs19jo9vY1kfm3nnZJcf6TS+KYyZ0Qjx/e9Vj1a+pFY7hvHYAi+IApxfAbR5/Tpkn5yXOGqmff+O09I3vp9rrcm+CH6QOqJ3zHkmWQ+OLv6Qcu2a35B14kPAQ+ku5LfQ3vZv0+SOJa5RvnXfqQg+43HGwDFzuHXGwDLXOz5Gtcz7CbNxGdoU8GAjoWem2uNyn+S11tTl1uNx72OVePedd+RZK4rpf28ztcmcndLqUfstdxHtVbO4lcoSLlW1qGGECsNAB5/Cpr8xK77tlWqJz4mYs4doiuXdtm5Lm5hdd4XKH+x1QR7UtVLaxlTeNzL5s8N/Zznk3baEHogv30iX2lW1qqcaEWM2I6nW1/7M8yxpv2mK8rGGlTISfspA3nnSylEOKM/8pEDpgGdff9YJ0xfLceb0V3Py3voV87vVT0k+fWnCQ0KcZrfTpFc+u7Fspi30qxXk9zdHPzeoS3rBSJvWt2XSYyXPKxLspA/1agcyzUiiW/wjr19jqCf2lLIQ+NPJc/3ph/vXKNrUV1nlKowJYG2ZK5Vm73uUl0pQJwrISL09+UwzvpCykmZfMU4wNNc1URyB0oHn+PBR9rmmb2rTG71Ed1/e0dOEHpqWvP5Zs4Rz6tAGhNz7DZqmnGHWJnfoqxfhrRsemTOhenneNyipl4l0zg5oU5yAmVf0aG3W9z//pNfeWvbYS+oGdlftD8fz36NL65tHESqQl42dYkbb/fWWuhOGapTgdjtfW9LYAQpoY1Snm0DGHXvurRugbxymhT6sQoS5I87OrbpySHv2flEPb1qZVLO9pTlRJ3XS/Tlt4Pq2vY1qqa9I2650k4c6vK/QlPSY2XQrGcj+m3Pslg9PjqoT+MiZCv/T2aa8/Mnd+ZbK+g0jEsJINrrk53lak1+4GavAMCB2E3kyuez50vLr3nIsgSfO1d26flA5N5VpE6GZBF8q5qF/X0tJpusasnnRbPqvb2HyRuYvfvvOw1zKh0yXz2689pAQUGi8e90WSpY4nc8C1uCCcxD50oAH0bPbzZOt6IGyeKOmiuAtvmJIKhZJDLnf7CL3R/Q70PIRkORQvzCp8vFv7nPd6Qn+ZkYXuiyRuVPz5Yop0SSHBQnfhSHmZ0GGhw0KvzqMvZJek86+blNbt0iNBfZc7XVR308EXHNy2ZofLvT7tRyVXeEJhobvCs6l4xiPzu1gtdE1CHxyRvH4x8XK6hJ6OFLpo1ANCB6GD0DvA5U5x52dOSquHp6tW+lEN4mxYKLfsch+UQU+Zo/vZddIiEYm/rGRCt2ihH1UbAJCVq99B6D1L6BQRxUongdHZ1w4Fj3l1CP1MTUK/d8vyee0fD0QXyl3mxgChu5nQcZY7CL1utXtZbhLvuWVa8u+mJ79NG2wRU64rhE4HABfL79314CmjtFgkdJ6DZaYZDsU5nT8QOgidesYD0SxdIPdpyslf2UL4CX3TPSWvX5j/8xA9r72brHMAc+hAx21ho19NO0smT9+tR5nn0ymZ31J1tTv7+VRdb4GOC/6ozruYUwcaF8gpVro4/6bLDpT79Qj9zEZCJ54rLj5QOa89lvtp5bx2FCjQQkIHiQEq30PPZJaUI1zPu6H2CdWKFU5Pkav8Tisr4um579TNbmiZO3qwzDTzwTLa90DqQKrpBLncLyg3X3b5Ew0L5KqE/nIVQvd4/vkqQrepXSoTOunOgoHLHXPocLl3yhx682Ez3/h+Ulo7ckw6Z+ukdM72KWWP+fkyyb9j65R0wfWT0vV3/ZI890KeLy2WF8WxHn5j+CxRt+jbQOpwubsO1EpfH5kdvPTWRs5WJXTK+AOX/txbnTuf9wsJWOcAXO6A606Qo5idX5R+8mRG+n//lZS+9YOkdGgqK+VyJUc+lWp8Uty0zS53o2NigR7dxiZb6fkU5egL3k28TBa6LzK/u3qIDEEhAiB0wI3EXkO9W76VbefxFfvQjY6i5Tnv/ajmPnXoit5GMJ4lATE1Wn/Oe5XQX0H/eDn9zzkjj3o2jBDv1fuzZ4ZieXpiEQ6RATCHDgC2Wegsc+hYKAcYHzYTjOXJxvHMy9fsrnjUVxB6zTr3R+bjsnUudc0hMphDx7Y1zKF3xRy6Y/mz/Xvo0xzb1ozm0LXd9ZhD77059Go6pWAsS/yR1HhtIXuV0F9J/3hFqUT6Bu54rv+qWPmMUDxf8EcSsM4BuNwBwMjlvl3P5W5saWsTu94K+Hr3exK6o2et9Fxp050L3k0PSN4GQpfheU/wWbqy/f3K51FFzJ0DIHQAYCf0owaEzuNun2acVwep9zChVz7cMja39eaT5zZa6Ds/ekTxww/tXTzs6wXrHC53uNzhcofL3ZGjX63sQz+6fMod23a3hq+0weXeKy73+g+3jBePUu6+4+EnqZX+Kkror/zCZ6X+QGTmzXT1XFd8HhWE3pEda9UwCB2E3mGErmqhG21VY51D1xsAaFnqSRB6DxE6nUv3jc2/9YNfIv1ym3y1QujKVjUhdVC+KcHdDrQLF+1MSs9MLmorVwBwEb7xWFI51Eb9ozFGljXvee9GFr9DpA64+eQ4InN22S8kPkTIL/tqhP6qqrv9OBbDAe1EQMa+f1sAWQAdcbjN1tuel9btPMrysRiOj7OYJXQ7SR0Dgk46aGZovDhT3br2as/SEnl1QJz/C2UZvGj23HY3Np6kg67vpLk8GMab7ECXO2NZqKY32UToSemSXUnp0HSx4fCQzlL4Emn81XLlSra4vSVLaXRDOalct1o23O/rxSmR5sNs6N/f+VFKuuCGSaI/fz7NcLiMkctd6x2Dw2cEGyz1jnG5G+n6pAt1atJWt/sVkcRfye3yNR5SIq8JCPM3hujJcExKOumMwlcdVSY1fs0UUNJkGpMG8Zt9N8lQNknJ8UGG5fzaVQfVU5CiKenS3fPS936ShjUIuBIPPTovXXjDlLR257TOXLfZ76EbbXebNiB5Xks9yaEjeHS5VX2VlMzzkV06ije/rY5XuUdC8YI0JCZ2y23zV6iZ/tIN44VH/RF6bnuSQbknGf7WIomkDlHrxZvkjNdMPCyDiqSJNBuRZsqGZ5MGA6CkybDM5pcl3pRmWMFoUrp4V0Jas+uodMsHj0t7PnwCANqEF5f/vvGe49Lq4Wnpog9MS4NM1vhRQ9I173Kf5nS/W+nrqRbrZ5Z0JS3qZz0yZikrlryz8gJvfpuuy1b6hvH8D2qfT/UO7S1kfEJt/jxpULCsmUiZqDQr8SYt/J/lXsrEuymH3k3ZmH+ecma5xzPo00mXkJQ2xJLSFTKp03nKdbI1VPllBe/zbkAnprl3sF5ui1fQOfPwNMOe86NMi9jsJ3SNhXKClb5v9JxT71rlhaQF40OPfHk4JWWzjlV5NpIobdxXzJPrl87w/O1Y8o+GYgt0nqHMlxCjeykLhGpXvL2WZt7G7eY0Vw5P8Ml/83/coh1wa7q6Lc2dXm7TLUxj/dnvSZV5dTv0Bi+xmTVqUiZJ063vJu2LV7bQN47nyG/flHiDJ7AvuXrj3mJ1/3kSANyFqhLSPgLTaC6RZY6T9b1pxn3G0xxblqYNFk9NM7yndzwoyxws60dBpg32R7Ok32iumGch2FGDdsByxvo053fMWT+6YmYu3ewcOkv4zZY60EUgm28rknV7k+s9m29LRIdkdu+pil5e+Whwzc3xtiK9TufdFKkbKK8w730epXuUJVyi/pGNFSBM4VrNr17cYTNfCDOK96ikHbZa/lWvE/a8cIQd1nyfNNaHXlhH1e+Fp00M/jTTsvJ6WK/+jzIOUqur3wXOPiskSOfqeo60d5pOrSP0TfuL0tD+xAHP1belHhqKpglGOYDbLXUfk6UOAAAs9d4yUDeOZ6VN+5Nf9VxzIP14KIpCAbrJ/Q4AAEi9d7AhlpI235Z61nPN7ZnjIbMuiuZ36K/e3/Vh19+z062iFqdW3Hr51ktvc9rVftXiNopXr3zUwtIKTy+taunjdVXp5UkvTrX4Wepx+ZnT760k9ClSgZoSa76u9v/6a1MMLt+mZ8LN1+t/1cLXitMoH1ppV3unOS1qadd7V6tMmuPU+lvtebXyMXpO7T2juLTKVC8OvfrTK1fe+2bKRa/+jNKg9rwGqRv1QT2doacnWPWfUdhaesNIz+lxkhEXsfAXDyewXNeLV+VZuiPoqtvSc9RCz8FCB7rWUg/rzKHy/t8N4FkjwLueIDzdmrn8cIvKw876DVuI18782ZpfWOrdgiGZ0DfvS5U8G+JJEoiiUoFOJvVWKUCHCC3s0sEB0BMAqXeHPqRHZ3sCKkrSb3SNU+ky3VP7v9YzgsU0Grp+HIhXqLqMV4SpE69uvbC6vSw8I1ioay1XnmBjutRIvdlCZbHQwwbvhjWeUX13ilT+VnGzhjXcpmGbBwpho7CmCJc1H7Z5MBKuL6dp9qmTsEG9hg2mTDTLZ6oK3nqa4i8LozrSii/MMTAM8w4im/ap13SvoSuaQ5dr/V9wkFO49WSCOMJzgo18KuiXq0ezcgSTFWT2XafjbUCC6M8dMaaRO8118Qoc8RqFZctgw+n6bSJ0M/HqkroBSYd1lCTLs6zv8BB6mIOowpxp1h2MNBG6Ub7DNsUb1iD0sA6hsw621EiYJV9qhM5cVlP8ZRQ2KCvWujHTjnXbxFFtHaOlowT7PW626K9mkhY4DD3B5gGFE/nVCZO63BVT3fGRkl2eAKc8Bq0OT+htV7mt5dJM6mrkuEOHAPQIjMXqDzPEa2qPPIeFFjawwozyxGORh22ed9erpx02pHkHZx2FLaxLMBsv77thEx4MhjxY9qya0QVCB+leF3OX4nK/5kBqMRTVMOebIWr8X9R4V9R53+hdgTEcQec9njSqhSkapEVkSLfIGR5LPHbUEWveBMb8srzLkm+WOtKpS1Xi1rOQWC2/MIMVZsWKdsLqCnNajmatyx0W4t1hMp9WymqHybIKW8gva5nssOilCVvMbzOpCxoEbKaviyZ1u2hBb+jpK9GAF/R4RTDIE+t1M7pdpTzporhN+5Jlz7W3p2dC0ZprhZEcWZS4USJ5Cs/Mu6JOhYom4mUZgIgGeRcNyljkaLRmBhGizfXLOiBiXRfBUkeG6UjoK1yzZGcUBi9xspBCWIdIwg4SNM+gJsxRVkau8x0cax7CJgnTaFqBl9TNvss7MAkzlJ2ZwYUmqSe0+7IZI8IMoYsMekVPTxtxEss1FkPVrFFrhgc18kq3rW2+LZXwXHN7+qlQ1MSoRDRpqfNWMu8oSeS0kAWbvAt6DUzkHOGxhsUzWGH1QJgd6LCWlcA54BA5ykuL1FnA8yxveDs4CdBp7LD43A6G/FqJk2cgtcPGNNuZX7N1saPFdaxTB0wGhmBRp/L2f15LmcXDxzsw4DW+WPW1hUFQ9WCZw573H0g+PBRNs1cSb2EKnCMWwQT5mSF63gZhx6hLNDFdYKXs7HpXsOAu5/WKCBYGIQ3/N0Hq7Vak3YAdHVg+O3osXi5ST/AN9q0YZ6JNfGPWpS/aEC/PdANrPg3fTZCN8QVp0/7E1z1XH0ju21D7OIsdEG0Kx8l0ONFw7CgbkWPEK5q0+O2uI9HGDmxreSf4SH0HSN4VpL3DhWnuxvxyW+oJc/1Z5HTLmzFGzLwrJq1NMZvNr+BAfmVC37SvKG3cn7jDE9o/P7hxX4HYqshb+a6pNCeI2ijH+YGGDfGKDqRXbEU4BukVGd31XGlJSD5WUrfN9Vm3bU3XZVt33650Mc8vM8bNuhDMFOlplU912xpr/nbo1AHzwsGpKjTqSXP9wxT//HfYaC5eZdta2GC+fofxnLi5NrO8fZBULPWEfVZ2y8CjJ1mftUn32mccks23Fci6ffN+z9siiT8dii/QBJbdVREuJ9Z2xxtpRXrb1bFOw2cZCQVUQQ3Iymkg7DSmSOOv0XPtQDvjNkoDvW41fbzv68XZeF1z4GAbVMLc0SZrvelMhWVS71q902k6dTnd5Y3jWfKHw7Nv9BBC+jeM57O+SKLkipGW2IJ3IzYTejvijdQd1NIJdWRiAEIXawbUXUxNLi41RZNouK9Y6vUHiSxbZnUHi4TrDgwJG6AhjKmVFt1pZdgY3umDTMjywST14TU/r3ev4VCUurDq31PL7zJpTDWlXyu/rPemjctNNQ0NljKpQtJOo+F1wpk+0vjOinvKu4NyWV6xs8matp1QnRgkWB1cnD7oR72vtYE3RAf0TquNJNs80/OlK/cVCi9uSL+EEvrLNu4tfEfOTO9Y6JE2WeiG8SZgocsIykT+vl0JaeN4Uor/S0Y68NkF6cBnKDJ1WGiC1vWF09c/nZHGP3FCxovS+CfroFw70fj/T76ojxXPnKhdJ42/VXyyPvy6+83hfUInfrV7avlZEeYJaa/8W4OcFlL3t/LM3ibUwqh/rvle7VoljBOq7+1VSVd9GlaGS8ulUjb16RtXTccJjbgaw25M3wmD9K/4XU7LyIeOS4O7pqULb5xSyL1hEGibBc1J6DtaROj1c+pCB1nqbiZ0Oy30vbn/kbn8TM9iibw2KMzfHIrn2pyZhNQ7Ln9Aj8xX705IP3yyKMkNFABch0e+l5BWXT8prd3JRIoG/+d5t2WWOePqd+hsNxhKoXhB2iDO7yHl8q94lpbIa/zC3BuC0QUXE3rCJaSfcCgsrfz1VoehRxdeKlvmU88vKYpTAnkALoPcKJXfx36Wli6QSb3RSp+ySO4rph8M/m920GD0rkGeHCH1TtF1iTalXSveRDkYWyC+yPxfy1z+Wupyf5VHlqG9xeP+yHzptDtFj3ASGqSkRkgs17TCNoqHlwgTBmlOMFznJeUkQ1kldPJrFHbChkFCwuS7vG1Ev7FSQr/tMwsgDqAjSH377c9L63byrBuY1pjz1yNwvbUDLOscpnWuGa2j0CF8VVJPMOhnLf2upf+NnufhJxbdmuDkD974tXQ+C1+ohCFz9tB4cZZyuNwmX7NM6AExcY9spVfnOvUKN6FT2HrPGxVggiMcnndV/o4kyYp3Is355k0XQ2NbjjfJEK9BWTXkwUod2ZVfgzpazqc2LtoxLz07tbisMDsS9N/6X6Pn2plGN5ST2nWr6eN9Xy9OnbC+8f0EWXXjJF0Jz0CkzIsQiYV3OZ81fJc0LwxsXHTZTOosBMej64yMOQadtEJPJhmfTTAYgUaDEKPBDKuBqam/iczZZb8w/2FCnusrl8irFUL/3INSfyAy9+ZgLGuodPkItB1Imhhs8IbLS3RJk4RpNg8sYSZtTpfVck5Kq4bnpeMnS51N6EDP4IlnFqR3bZ/kIMxOhc6gQJXUeQb9ZvRG0oAQWe+xkG3CAYOWNyzNOMqUswNC4q0f/BLpl9ukQuivPPAI8Vbd7od9K9zuANAaXDCcAKEDHYPHe4bQjbZwGpE64ARkri6HxvNHKXff8fCTXsXbTgldhmfV0Ce9gcjs1aE4PTUuQVBgQOsJvWqhgywAEDpIHdBFMJYjgcjctsjzf0N5vK9G6K8olcp9oU8R78idpf6heK7gh5UOtJPQYaEDIPTOdM2D1FtjnVdWt5evfvB4/6YHiLdK6K9UCJ3+x6Msk/N4ZCs9KjO/BCsdAKEDAAjdDLFDnzlsnSvbzOdjnipx1xP6y+l/zhl51LPhE8R7rbB0ZiieLXf1XHpknjBdc3O8rUiv03nvRpc7Vrm3fZU7HRG2YpX7409niP2EPkncQ8y1tHCmqXo8cafoHe5n2617I/PKYjjfaObMNZf+wlvdskYJ/RXLhO6pE39k9tbqincCQgehg9BB6G4jdKnyrOoecROErhoWA6FLIHT9bx34upHQ2z53vkBXto9WjHPi0ST0kRHiGVjzc4XxQ7HsHB0JwL0BYFEc4EacOFmQvv+ztPTl78xLX/2vhPSLQwtSJrOEbWuuWSgH97sDA5RSKJ5LUI5eteqQt2aEVwn95fSPM5st9Eu+SLyBsZmL6EgAFjosdFjosNDdYKHX1lb857fnpXW7p6R3bp2Qzr1uUrrwAzJunJTeKZPredcdka67/Tly5GiuRS73I7DQjUh9xxQsdNus8ywJRmYuPW9nI2frEvo911bMeJnQf0A3r2NkBMBCB9qN+cSitHb3tELe63dNSWtloqCntNVj3c4K3rX1iLT/X084+k2AioV+BJY4I6DjLKMUimV/TLn56g0/6qMedSZCp7Lp3rI3NDb3x3Svm1+A6x0AoQPtOzv9xVNF6extRySfTOgDDOQxKJP9pbdMSdff/pzDq9xB6CD1lqAciuepdf4Xaw680N/M11VCP1P5Hroaod+7pcL+oXj2gUA0XYbLHS53uNzhcm+1y52S+dJSWVr1gUnJt4vPVUyJn5L6vqqlDpd7G1zu7Sb17nC5k2A0Uw5FMx+nnPzxIeLhJnQqaz77C+/GW0+8LBTPLWGBHIB96EA7sO9TJ6TLh2WCHjZHIO/cekQ6+nwOLndXWerz0HnMmC+FYrny1befeuXWOyXv5vtNEjqVMwnx+COntnb1NjYALnfAla72dGZJOk8mzbU7zZPHFbJlf8Odz8PlDvd7J4KEKPdGZm4ihGjRdI3QX6ZL6AMPEs/2aytL44fi+ed9kTkcCQvAQgdahq/9t9wubphkmjfXm0+/4PojUj5fAqG70lKHta49DTBXDsWzJygHX7rnCW/9QjgtQn+pnoVO5fIDpD8ozPxzZRsbCh8AoQOtwe4HXrBknS+73bcdkZ6dzILQQeod9gGWBRKIzJ73D3uOePU4uo7QFwwJ/R0jlftD8ew3A2Kq1PGFj0VxWBSHRXGuXhRXG9RtiB+TfLutLyxbdcMR6dEfJrEozgWL4lpK6p28KE5MlkKxzHcp9355lHgYCd3YQqey7W7iDY2e+r1QPEewQA7AHDrg9Pw5/Q1FzRD6StC96994LIlFcbDUO2UhHHW1k2Bk9g+Er5UM+blK6C9lJvSaBMXk7cHoAo0QC+QAmwl9DoQONOCGu56XrrDB5X7udUeknz2dgcsdpN4RCIhpIlvnd9ef185K6C9hIXT6NbbrZCt9aDTdH4wt5P3KArl5uNzhcrfR5T4Hlztc7g3u7397eEZ6301HpIHhSZNu60llUdy7tk5I88lFB13uk21yuU869KyTLvdJ3TTZSuod6HL3Kee1Zxdv+FDqjDURyctiaHMTek1CZz/Z54/MbFC2sUVqhW6l8Odb9Oy8jcQ67xChz7PH4xpCn7fQWeZB6CB0TXKlbvfjL+alf5bJuPZJzgoBGGGK1P2tbFsLRaYbXPn2fW3tSHPcTb9q13R/yUqS0wp/SiMMtbh50rEcDmlME0v+phjSphfvpA2kPu8iQp9n1JWn81uZ1p696vztn2bmZZOETjwDD1eela30Cbrh/XQi5zkyN8+YwfqMav2fh2TmVQpY7/96FcKThwRDuHplM89ZrkZ5Zs2P0bs89WlcRnC5Ays+kSrjmn3HFFLWJzh1q29A/vu8649I3/lRqgUHyxiR7qRK2qcMSNeIrLUs3kkGUjeKd5JhkMCSPqOw1eNj011G+tusETJvgahZ/7/yum9stjwUz08pB7tFiHdg4EGPoxY6lSvvWfLKVvpbg9FM9Zx3LcJlJQOj9/WeTei8q0HYykis6f6Ka/Mm49XJH1e8BulQC0tzgDJvMFCYZ3h3nqGc57UHXMujX+3wYKHDQq+scJdI4znuBcVKX7dzktVKVyxKSubrd09JG4Sj+h9psexyn7QTxObw7EhLG9KkRurzHHyhpSd1dLfuswacwqVHNe5F5pVtakHh5Nu33kW8PJxcJfSXmCL02tfYQrGFhwJissyn4DkyyHyfN96ETe8mTOTTah4S5hqL4+BN08pyhIUOaOGrjyWkd2+jJ8axEQIlc7o6/uzrKgfKOHG2wWkLfRJwitTpp1cjZnU5r3Fi5dmEZR1Pt4QPxXMPU279h1s+32ea0D0m5P0HJe9Q9MVfVfz9y653ADCPyra1JRwsA6ifGvf9hPINdLrqfXBHhbSbQYmAfj710lsmpUtlQshknGtPj4PQ20TqXQjlRLgcGRJP/dbWO8peXj6uJ/QzzBB6bSl9UEyMVV3vBKQEgNABJ3Fqtihtu+2YQuwX31RZwX7FzknFHU8J/fzrj0gXyrj/P05K1GHvZFsCobcQ3U3qJBhdIAFhftxjUiwTOt3GNvi5ip9fHlkkfWNzsNIBi4Q+VyF0EBdgcOAMnVf/96/NSrvu+6V07b5j0rYDx6S9nzwh/ddPUlKhUNafMwehg9TdZZ2XQrFs5qaDxLthZMp7zghpPaHX5AYf6fOPnRqofBEGVjpgA6HDQgdsIH0CQgepu57M56vntc/4N+x8xmvRQj/DEqHTL79c/RGpr7pA7gk5cbDSAVjoQE8AhA5StwH0vPZnKIeeJXy1r62EXpOLR3/cHxRm31hdIFfuABcHYbrm5nhbkV6n896NFjq2rdl6UlxL8ueqbWtHXLRtrZYWN6WJk9R59GSrdWpkrkzXnwWEmb9as6fktcLBthL6I9tq29gy/xoQU2UskANgoQPdDmxbazepT3a0pU63fMuc+WCVkD2uIfTN9xPP2Xu+6R0STr6afiHm9DnvdSOfGppHQ3aMirTCbQaPpayX3ua0q/2qxW0Ur175qIWlFZ5eWtXSxzta1cuTXpx67UGkhD5L6gh9paVbr06tWFlq/2+Ox4qF2fyrFr5WnEb50Eq7VpkY5Z+1PPXSr/W32vNq5WP0nNp7RnFplaleHHr11/yW/PszxUKfULFgmy1bLQuXXq+H1jta4evFUX9dLyw9D4FWWlgtdpa4ecNuekYhdQY9p6UbjfQzK38Z/Tb97YvMy2S+QALjide87QHJa5WDbSX0evELs2E6yY8FcgAWxQHdbaHTs9wnYCm7AJ1mqQdj1NU+t7t2pLrrCJ0ukFu9+onqNraFU3R+ACQF8BL6CRA60FEudxA63O+8HuXZ8lAsO0u5cmDs596BARcSek3e+x/EGxRmLqweNgOiApixSib0Y78EoQOdgR8+nla+sz4AQgWps08PS9TVvn705Puu3/wLr128WyX0ftsJ/fQ575kfdMSKd8A1WDs6Lz34jSzIAugI0INs6HfaQehuI/U5N+87L8mE/iPKkfsF0jcyMmI7ofd7bJZN95a9wcjJP6IjEZA6wDyvJM5La0bmpKUlCVY64FqUy5KUSC5K5103Ia3dARJ1I6n73EnqynntgdETf7bmwAu28q6jhH5wS8VKH4pn7gtE02UXuj2wD92F+9ArWznmpWsOJKR8vmzLt7SdfkflfdL0qxUH4YlTsjetmmmTmsKWLJSfwbtEp1yIxTrnfV8vzhXXKZlfvkM5P544t/cb+9CtL5Sbc9M+dBKMpsqhaPqjlBs/PkQ8HUPoVP70zq94b/jgyZeEYtmlFdvYAEADviqpr949K933uVPST5/KSE8eXgCAtuNHP09L+//lhGKZ1z4GA4u4A0jdJee1B2MLpS2x7MvPvlXy0q3eHUXoVM4kxBOInNwSpOe8C3NYJAcwIxSdl9aNzUnnXn9EWUn8bgOwPOMk2h2/W9PSLfmlcZwrE/nAMPs32QE3zanPtXPenFS2cp+6YeD9n+9zgmsdJ/SBB4ln+7WHvBXXe/aYb2y23NZCBTrPWq92RNop12CuEnABYJWD1E1sUyuF4tkXlEPYPkYXwhFHCd3rcVAuP0D6/WOnzg7FMsTVqw8Bl6LSZgZB6AAAdBqpy3HSLdxBceZd197tHNe2jNDfMfJQX/Wwma8HxGRJu0DnDJV6+y38uRaH5ZZ8W0m7ffHBSgcAwH2krs1pASFRkgn925QD7xslno4ndCrb7iLeocip362c867mep9rIq85nQKbM0F2czp/z1kgpjmOdOjFy5smozTMMTyrdc9suozCnud4d04zbcakfsTCfSffneyyd9sZthtxpMPD76ayskrqVnRZ3XORubJsyJLAyMnfP//rpT4nObalhF6ToJg4II9WpMoCOSPyMLJU50yMoOYsWpF2WKasebZjsMIS7pwNnoA5ix6XOa7Bi3Pu9yO9p+CALq6jI8ifIanPOaDz56pbcFMkGEvdWWVcTwsI3dsSQj9n5FHPdXcT7/X3pPtDsYUcXSTQaBFqYZ7j3jx7WMqHY5ruR+YIW5ospHlFvPMc8c4bhGUljXaWs17ercajRepHVNDc6dV+j6iEMWnit+Fa81ezVNK4/NUonbRoxTOpke4jOv9f8Szhi9coDqM0qpVvc/4brhPtumLKL1HPk1bZLH/xTCs9WvklBuVskH7Vd4l6e+Zpk0d02gprPR9p/mIbY5s02494+4JeuU821Z/6/UZS19DPmv/X14M+uhAulimGRib71ww6z7EtJfTlL7G9+0lvYOzUUHB5gRwAmMdpUj8CtBSTFu8bvTvpsjQ7nV+0qfa0YRVStweEnpLqGzt15dCjpCXc2gZCJ56Bh0lf9Zz3w3KmSyAloHNI3U6l3S7ysJLGSZvy18p3J10Yb7sIfdKl77ZzMKTmfrcOH/2aWnzhCOW6sbFfeJ3YpuYKC53KlfcueYORmbcGo2nq3iiDlACrWANLHQAAN5C68jW1DPEJL/79xj3TLeXWli+Ka/gaWzzzhYCYaA+hR2YJ0zU3x9uK9Dqdd9stdTcoiAnS+Gv0XDvT6IZyUrtuNX287+vFqReWE+XohrrhbctuBmvaJ23RUXRr9lBs4T+Vw9UeIX1dT+hUrjlY9m6InHodXdIP1zvQfaQOAEDHwaqlPjZbpluzNwhzv7H1DqnlvNoWl3vjNra5EXqKTuM2NgDAQjkAADrK/U7oYu+AMBttF5+2jdDpNrbBz5PqOe8LCd/YLKx0AJY6AACuIHZeUqffKgnFFtL+T5K+DSPPeSnH9ZyF7nvfU17/2MnLQ8qXaGClAyB1AADcAWZSry6E84+duiK0q3182lZCHxkZ8Vz7ieVtbI9XvpkOIgLsXv0OxQQAgKOkXgrGUk9RLnvvt1q7EM5VFjqVi0d/1h8YO/W/lQVyEWxjA2CpAwDQIaQuc5ZyUJo48+aBPaW2cqkrCP2RbZXfUCz9qYCYLLdkgRy2rXXdtjX3WOrYtoZta9i21nnb1nSe3aFN6gEhIYXimc+04rz2jiD0zfcTz9l7prxXj6deFYpllDNwYVkCcL8DAOAuS312xYlwdP1XYPzkq9eO/KKtPOoaQq9LjMc/duqW6jnvWCAH2OwhgPsdAAD7SF057TQys7N2tLkLOLTPFYROz7pdvfoJb3WB3MnT30wHALtJHUoJAABrpO6LzJRk63yGctbVHyV9AwOuIHT3WOhU3vd54g1ETl1QOed9FgQEgNQBAHAdqCd5/eiJ9+69tX2r2l1P6MvnvMdSjzn64RYsiuupRXGNmHWY1LEoDovisCiuqxbFrURp3e7nfki5Kj6ifOUMhK4lm+4tyVb6ideHKnPpcL0DTg0wYKkDAMA7QCiv2/08uWLXoT8NfZT0u4k7XUnoB7csW+kfDIhJWOiw0B201J0gdVjosNBhoXenhT5BBndOl9ftmv4w5aiPD3k8IHQGWXXnIe/GPfMvCcUzi35sYwMcdr/D6gAAwBiHS+t2HSutvfnQmWff+g0v3XINQmeUNyrb2E5eo2xjE2y27lxroc/CQm+Tpd65FvoELHTrFrpOOepa6BIs9F6w0JX2Qdbueo6sGT503faDQp8bObNG6K5L3MCDxHPd1i9VtrHFF476xmbKIHQQuiExt9X9PtGBhD7RSsXKQehHCF8eJ0yU7YQKmU+oPUOcqYcJC+1iokX11EpCn7DpWd62MMFG6MMTpXW7j/1SOQztqh/30W+RgNA5Zc2BY/3B0Rf/b+Wwmdk6pT1rTZkzEfosQzyzDGmY1Sdv5VpzvrR+WQhytk0kaVBWLRuAzHLcn22s6wZS11PyExYJfYLXcjBrXRqkkUeRqhHfhAXlrVjiGkpVz1LitbQmdPIw0TSImOBQ8kbxaJIGy3w+R34nLJDdEYN0Mg9ONQZKPPmfMJk3vXjU+plueyBaz6zddZSs3fHsO999lzs92h1B6Fd8t5K2oVj6/wXEROk0yc6qK2RVxa3yzjKJ1l+bI7rvaP5qpUEt3jmy4vqKeLXCarqulgfNQcCsTvrmDAZKszrvaz2nRpa10/9Y6o+1nGcZ8jLL8bcaqU9oEMGE1n3SqJi1iLBZcfPgiGT+3WbFpZe3I5zpYblnmP86cjUK74hRHXDmxUjJW8ovQz3qtRveOjjC0FYM25FGWzZTnqx5OGLyeT2SNsqv2rN1ZbBjsiQTuvKB84dGiQeEbkG23TXp9Y/N/Hbla2z0BLlZHaJhvTfH8e4sIyFyELvlNM+ZSLOV/NrxrpNpnrPw/zm1AZ80yK1czBByq9/tRBzpwDQdQR24tqy4B8PltbuOkbXhZ3/v3J3u5sra0a+uTmRNguLs/mA0VV0gx6voV1hhZMWzatdME9ksg2egOd45vnhVLXSDfNsOjvDVvBNMYcy1IV/NC+V4rV/N0b7ac+0AcQFRaKThMLGevsOEPy2a75DWluNh4h4ir6XFTWlytK2veHZw5xRZu2v6Djd8Ta0rCJ0ukNt+h+TdsucFbyiWzvojMyUblLUJQreDJGbsi1ctLDej09JrmtRZlWA7laQbFPRhHUI/3GJC14tTL6zDIHTXgyftjc8OhA9TV3vhlrt+6B1Y84zX7UZvZ1no5z7l9Y+9GAzG0nUL5OzEjNRxhAO42VIHAKCDsW73MbJm+JmN+46STqDITiJ04hl4uJLOUDR1qHLYDMgGaB2pD4LUAaDLUWehDx8qr7v1uQnKOVd9lPTRL4KC0O0+5/2eJXrO+18rc+kRu13fM21yuc/A5d5RpA6XO1zucLl3p8v9NNbK1vng8DNvO2dk0tsp/NhxhF77GttQLP35gDBfhvUItMf9DmsGALoVgzsmS7J1/pCyhuuRzuHHjiN0KtfcI3l9Y8//SihOD5sxuUAOFjosdMcsdVjosNBhoXeuhX64vG73c+SK4ad+Y8sdz3o7iRs7ktBrWweCwuytwWhaZRsbCB2E3k5LHYQOQgehdyihE3oi3GD4kOjpQOlIQqfb2FZde0gZOQ3FM/O+yCkskAPgfgcAwBIG6EK43cdSN3+z1Ldh5Nvec0YeBaG3Sq7bTPr8YydWK1Y6r/UHCx0WumOkDgsdFjos9M6z0A8r57UPDj+7NrR6ygsLvbUJ91y98b8r29hi6Z/4hTlY6YDLV78DAOBilNbumn5S+YbItzrTyO1oC11xv+9/rt8vnHhDqPI1Nqx6B9poqUMpAkCHWvHlytfUJt60bvfPvZ3Khx1P6DUJxZKfCIhJmdAZ3bpwucPl7hipw+UOlztc7h3lct8xKa3bdfTTnXBee1cT+ub7ieeCOyXvVXckXxGKpSXfGBbIAe12v8PiAYCOQWUhHFm345lXDQqf9nayYds1Fnpm8X95/GMv3lQ5553BEoSFDgvdwXwOwkKHhQ4LvSMsdOpqXxM+FK4dMQ5Cb7OMjIx4Vq9+2ltdIPeirFAxlw5gTh0AAKNtaiXZOj9FuYOe1z4w8GBXELqnG+SifyfeYOTF8yrnvOPLaUA7MQNSBwCXW+6KdX7LMxetGe18L3XXEXrtnPdQLPlfWPEOuIPUZ6A4AcB9ZE5BrfPvU854xwjp6wYe7CpCp7LpXuINRE79QajyzfRy582hz2AOvQvm0E//Vkh9EHPomEPHHLqL2lnlvPbB8NN/Evoo6e8W/us6Qj+45Z0VKz2aOhgQE3wECQBWLXINK13fUj9scP2wznOs77Lea75/mDE+rftm0jxhQ1nxhmuX1ceSpsMM6TpssrwnOOpMLY7DDrZJlnKxo8wYXO07p6W1u6YeoFzx8dE+TxcRuqerCF05bOazknfrnYkzZCu9WPka28xKZbvCWpxRsZRnJO3/6ylynfeYLPSZpnBm2MPSTcuspJ8/K+Q1w2Ghz3DGMcOQ5hkb8jujE79Wnao802ChL+ddhdTrLYfDBoTKq/wP6yhb5TpRf+6wifAPm0j/4ZpVrHW9KX2HGUjlsEHZqqX5sIqFviJOop2Xw0Q9jayDJNX8EX2SO2yiXngJ8XBdXeiV5wRjGngGjyztiqWdabw7fKi0dtfRpSt3PvWys8aOejdv/jEI3e3yh6t/0OcfffEqZRubUHV9qirjGZ1reqRi9AwLQeilhWOQwJxm3vxppcsozVbKaoaxjmYt5HfGhndNpFGd1A2U2WGNZ1ivs2DCwjsshMnz7mGDsuFJ+wRnmq2EZbXsJyzU0QRn2BMOpI817RM2tEVL+a18TW34mW0bD9zd1228150W+gDxCMITla+xxTJTytfYIjMmyWnWAsHNWiRHPXKZNTEwsRqvXWmesVBWTmPWxmdViD3SPKdupwK1k9SdUOATDufhcJtIZ6JN5Xy4RYM4O/PbZijb1I4+rxxKdtWP++iWZxB6h8iN1z/X74+8+E+h5W1sAOACrLDUDwMA0AKs3TlF1ux45pzzDxJvN3JeVxP6e75X2Vs4FEs/HBDmG630yCmiomiJ88rcxnjVwnI1kXVYes0TNjHMb4XUyaAdpD5s5r1DxPy7duEQ0b6udc9q2HrP66WHIZ5hp8ulnXXkpjSZxA7la2rfpJzw0Gh3cl5XEzqVUXrYzOiJ36psYztVhoUIuNNSh/UEAA4OTMrr6NfUwk/9znljpK9b+a7rCb0mgcip8UDF9U5AJgBIHQDs9vq4F4M7J8naXZMHqrTnAaF36gK5B4ln+x2HvDc/8Jw3FEst+MeMFsgBgAVytkDqgyB1EKFemMMgfjPpU85r33U0v3XTD71rBp/xdrPh2jsW+vnPeP2RE/7KOe+nzCviiMMEEHEwPhCts+9G2mSpDzuskIfbHH+nkAlrWQ47EL4V0h/uYAvduEwIdbUP3PL00L6nu9fV3mOETjwDD1cqMxRNPqMcNhNpoaLneTfiEnLCu7DUAaDTvSXDz9JvnR+muv8t95G+kRECQu8W2XTPEl0g91fBaJIon1iNNClguio5wmgxq/2yvFu/8lktXqPf5rC04o0wWv1G9/Tyb1QWEZ1V7hGGMFjTFeHwcrDWJ29ZNdenoFHXhm2hyVLXs+iGVe4PG1iDw3Wrl3nfZbXoWO4Pc6xyH+awyIY1VooPG4XFsMp92OQq92HOsqqPb7gp7az1a5TfYYZ0Deuscmd6l+FZnrLiibf6WzlE5qm/PXv3ZH8vcFxPEfo915Y91W1sDwaEubImsaiRhxaRGb1rRHhm3mUlOK1nWMhSK616ZKpXdkwDFIP8sw4gIjr5jXCm2UrbEDjrV4/UwyqKfZjB9TpsoAiHOd4d1laczO9YjddK/K1+d9iGfDaHZaachznahtk6CluIVyvN1uqKDO44Urpi99EvUp1/xXe7393ec4RO5ZqDP/IOjR5/bXUbW0lXcUdMWrx65CmYJAizRCwwWM+sxMUz8DBLegLn4Cmi40mIMA4qzA5wBI68sXoljCx1ViU4zEGqRu8OMxDVsM7fRlam3iBlmCEc1nyHLYbFWzZm68ionFlh5p1hjjpijTtssSxNtU16Itwxsmb3s78eCn7b2yv81nOE7qnmNRA5tVtZICcYEIVgYO0JFp83IoMIg6s4wjkYMHLTs1joEcaBghGpsb7LkmYW4oxweDsijPk3GlgwTUdwkDoPOYdNKkQWZcxLWjxxssYbZvQADBtMBxg9byWNVgiQh7hZy8HOsHkGBax5D5sMr24h3Npd02TN8LMRT49JzxE63ca26tpnq+e8p+d8YydLXG7miAnLkYccnY6XhajMPNvKNDv1rtU8mU0HQ7ialnqY0wo0o0jDFqzBMCexhzlJ0YpVPWyTFRm2yVK2Sry88+48JDpsw4DDah0xPjcw/CzdppZ8/Y+IZ+jWb3qpzgehd7lc/8DTXt/oiUuWz3k3mifmcQsLJuZVWeeBeefHWefQIza48gVGK9vIimW10AVOl7pRGZudn48weGXM7GJYQeom3MZhC+RoliDMupx5pgNY3w0zWvK8Lu8w55SGGZd7mMNiHrZhWsCOsMwMOsM2DRQrrnaJWueDw08PDl025YWF3iOZ3uD778o2tljqR35htmS7heqERRgxVvrM4dmRNzOuaCfLq1UehIjJqQgbymkwbMPcqFsQdnD+d7hNYbcjTeE2hu2msqr0jdLaXVM/VxbCfas3FsLBQq/K6v3P9Qcjx/98+Zz3dpM163uCyTB43zVLcoLFd1tRzjwWeyvbBQO4FiuFHbLg2vWuVa9Cq9JsxiUfbnOa7ZznNrPmgedd1bI6VFas8/ChN67d9YS3Fzmtpwm9JqFo4mMBMVFu2NftFMbU4jAbbwvSays6Lb1W82mUXzPlcUrf/c6Mun3o7bIyw1ppqO4JH3Yof6rpPFQFb1kdcqDsOPPuqIVeS4sD7cXmdja4Y0Jat2vqX+sXP4PQe0g23088F9wpeTftPfXyYCxZ9kVOltpDaiaJbgyE3tGEbrr+bCD1cJsUtBFxhWvXte45NGAJ6xB62IDQw3YPdtpMnqp11HQQkeumcCpfUxsafuqVg+t+7u1V47RG6H29bKHTQvCPvXhj9Zz3HiEdoMMHDQrWdNOcOgCYxNqd02RN+Nlbqhq9l7msp7lcIfOhDT+snfN+3D92stwxLvdOs9DHemSwVMvnmFMWuh2k7gYXqo7LfdhBlzt3nLoWOmldubSzjtyUphXb1Mrrdh89SXX4VR8lfQMDD3ogPS7v+zzxBsZOvDsoJkjNpXn612FS01Tsp0DoIHSHSN1JBX3IhYR+qAMJ/RAInWF6oHKIzFOr/uDLPW6dQk7L/2/vTIDkuOozvj1LwlEFKaCQCWUXdoztkDKUMThxKDAGDJYpFw6WZmdmNddGkdZGQral1c7Osdo5dmdt2XJsCxkBsoqYKggKFQIuYqDAjgO+sGTH2t259tCxc+8lA+GIdualX/fM7hx9zrFzfb+qr+bo7tevX8+8r//vvX59ZBfJD5B7jn9wS7qowhQ2+bTMq5hBl6a9oCJt8UpdPA2h7YX2nZbIo5J8pmWWLSjch9p8iB1bWuF5SkuUi1j+lRyDVDkrPX9pBdsJmXpYYtBXWMDoxJYLrS+3XMmysMT+xfYVVrgsoiAPSvOsavCcgnKUO56wwjwrKU+5fSgtRyXnICzyOaKinMMqympt/AKdr/0FWnffMsQaeocP8AYF7HicaKzexGXW8Tdyt7Gls8JakDHktLgJeBdIWXpr38lsK7jdgrJ1FRmn0m3llomkLXTsVe+rXnlekNlWwnDzx8lF4HK/hYWaHvv6fephmUqWi0hlTL2SzxEFFwthgUi0KC+kfFlY4YVKuDANBSYhln7RMpm05C5OpMpN8KKAyOSnwnNS0br5yJxIbxtReDGiZL8RiXMULh4IN3yW9NinrjAfI91wMFDEV3d/ho/Sx1ceM48t18hYSk04TRR9p2S/irdrEq01MVeaxkID87+g/hzLnZ86nb8eUVMXM6lKFKlg3YjSPJByA1G9P6Jg/0pFKtu2mv1Vc25qmkcinqdIduPyWSJ7mOids1nD8OxROBcQped7Wc1X/CvdVv8bfzJxt7G1kGFCkKCpK42U1ETrck24YZVRpVwUqfgioYJ8hCuIhJXsI6IiX2pbRSo93kgVkX+lLTeRGuaZl3YouKp3nbmoG5h4861HiGbnzpMwLyDMVVuGGbMnvsMynr+NrZZRaooo+q7StJo6Qm+x/FZ7nHLHW+fy4E1drMIMkYZFV/J5INXnT/X2RDwylkqrLuXYBOem7PiaJ09cdE4HwgV3f+fsbzEQDohDb3kYHQlo+Kb338zwT2ODocPQW8/QpfvUQ6RxTaYRBU3u4RYx9HCLG3o1Te4NyQ89H6uG4TPnaR293fwiQzAQDsix757z3RZP7O9zk82gGRdqk+Z3CGppZfTOWaJ3BG/63CMXNXAqoIjbf0lyT2O78GMz9zS2NIwdgqlDUAOlc0Qy+uEzP6d18w89iMyBCvY8RjSWscQl/G1sGCAHtYGpwxSgllUoY3CdIb2O0F/eeDdBdA4qgzXzcbP/AkGUDsHUIahB0TltandOP8TXyojOgdoBcidIl/dEVnNwkDDW8Qu/NXLzvMMUoHZofodBQK0jLR0I55r7g+OhVUbbE0R0Dipn0PI6Y/Ymtlm4KD2FUe4Y5d4yo9wlTJ003tRDEqPKN/q2Nal9bvRta6EmvG2tsXmi87XrbAGL8yTmawfVRur/yf+ILP6VAFsZoi8dQvM7BG3cRcWqYfhsiNbBHzlKGLcbze2gSnYcuaixjCY+xJo6jdIzslEZffWmsjnx75VE6ELv11/zaRXvQyi94m2E0i6W2ghS6pjy+ZQ7NqF9Sx2/UBmI5UnuWIQ+i+VVbYQtfN7EjkNoO6m0xfMu9luQOH6++Z2LToUq0mzx94VRWn5ZYQS39j5bnl6oRGLRX6ggrcL1hLYrXFa2L1K+j6L3UvkX2lYmci2NYOWWC5WjZLkQ8SheSR6k0pJqIRDLi9KIPZSV37fkcfLRuSPw0c+45jBfO6gNR3ZluNe+8QvfM48uoi8dQqQOQfUVa+TTdBKZf6d1b89P0NwOaojePaHp8yXfXtVtbOhDRx96M5RHyb51dvShow+9GfrQi6J12tROzPbT7969K4SBcKDW8H03Zm/CyQ+QQ3QHtVOkjqgQaqLo3DnHmnvAA98BdbuN7bZdT+XmeX9jweRNYoAcBFOHoJrfphakk8is0Hna9zwa1tC6F4C6cPM3AhqTN/FFfoAcTACCqUNQ7Z6mRgfCzRHdUEBrdp5DUzuoZ6s76dpl+TU3OKPPf+Fl1bexoQ8dfehN2IfeGFNHHzr60AUfj7pqcM6+TuvY3h9lMRAO1J+eh2PdZm/8qtwAOYx6h9pIKUTqUMPma+eepmYPftDgOoHoHGwsVv/yE5axpYzJi3neoXYz9VSDRr9DHWrm9Glq2V7X3LfzraEAbAg7v04Ha2Q1/fdH32L1r6waMUAOalNTb0ykHmpJQ+qs/dYyX6Hc09TmssYDE2/TG04jOgeN6FInXSZv4j7uNraa9ImmZD5DtS3fZk+30fuWMvVQDSv7UANMphUNOFRlOYYalE/5POvpbWr24GCuZoW5gI03c7ebn73I6r8QM3mTmeLKNaXCrFNNahipBl+MpJroeKpZv1nOb6oGph6qsOIWWhaqwqhCNbhYCMnkK1yDtOSm1FWaj9AGXhCEanAxEZJZtl4O2qEgnREuSevS/uOE0WpPwGBAY7jzP4jG7E18xjK2TPKV37rSxe8lR7mnRCrcVFnlKj1SWWR9wVelFxkpibSl8pySOM6UzIWAUPoSZSu4rlS66Qq3VXheRI83913Z+UtVec5SCstQLm9p0bItNvVQiQGIvZedy710vdK53EW2l5w3nsjnL1Q6lzqRWCY2Lz0RL4+wTJ5DEnlRsl44q/IYFeZRbL59uf2EZY5VfFt6m5reFth82dMETe2gsRzZRXID5FaeNY2mM+WmLlS5Kl1WqdI12DbdoP1vtNIblF66wvUaWb7l+5E39ZBKMwqpTCssY+yV7kft53ptW8uyClWR50rXVZkWvU3NNfcrWofeMkQYDIYDDWf74YzGMhq/1Mo/Mz3TOmYGQeolbOoQpFoZOl+7YWjqcvMxgqepgebpT+ei9LGlRyxjS6j0IZg6BMl0LegdM1mDa+ZrcBDQdGiHs5q7j0x3W/0rf+TneReoCL1Joug7Jap0u0ap1fJb8XGmiKLjbWR51Gjf1Zl6UKLPWnRZtWlLrU/Up1VtPqX67JtBa8dX8zxxA+Fcc/9n9kz/+eYjRLNz50mYCGguPrjFw5i8se3Wca7pncDQO9HQkx1j6OumXkvTDTbI0INNYujBJjT02ueJDoTTDk3tOvpKEtO7giaM0LUnugzeSO5pbBemRaN0CELzO9TR4qLzc9z4I9OLDMFAONCs9G8/1W3xxf7Oyj2NDZU9BFOHoMKBcHS+dp098Mlb7sJtaqDJueO13GQz4xd+ZB5dWBVseocgmDrUgdLZwxmDa/ZntI78oedvYRig+fnC00Rj8kTfw/WlFza9ow8dfeht1odeeZ86+tA7rw89mKF95wbH5HtvvBvROWgxzL7EmIVvekeUDnVYpI5oFCqJzp3TRO+MHORrR/Sbg1YZIHeCdHlPEI3/3hcY6/jKb4xr87xDUGdIB1OHCm9TswVX9c653//s8EVG2xNEdA5aj3v7CGP2Rg3cPO/eJCp6CJE61JmTyLjmSM/QlMn1Y4Lb1EBr0vsM/+O1jC1NmnwqJptBHzr60NvkXPTY0YeOPnT6NLW5IK0Lrz9GGLcbze2gRek/SjRmX/xa/mlsaHqHOjFSR5Tawfecc5PIGIYCH/m0ZxbztYPW5vHd+aexLX/XPLoAQ4dg6lDHNLXrHJHV3uEz36d1oOGTaG4HbcCXv5HVbPeef3vZbWxockeTewedi2JTR5N7+ze5B1YNrjPEYHv9Xbd9ZRoD4UC7wEfpZm/cbimdQQ6GDkPviHORLDF1GHp7G3qQ0BnhemxTbtT/oK2gt7Hdtuup/DzvaaM3gXneoQ5UEs3vHdJvnpuvfZnWebc9GtbQOhCAtsLsO6cxe+Zv56P0pHTkVBrp0de8Cj8LpSG0TmnapempieLE0pXbp9D+lR6/1HZS5SGWR6ltlUSwcvsSO29S3yk5DrG8S81CKFfOSspTKv9yv8u19VO5Zcmszi4U/eUj5cKIWeizVGQttK5YemLLxbYVi1zVLpc7XqHjFIvileRBKi2pFgKlZS40EI7O1z615c49v0BTO2jHVnfS1d/3EjcopG985SW2oltdN3Xco94u0SfyqDQfSUTq7Sp7aNXgnHmN1nXbb8VAONDG9Dwc67Z4ox+wjr9Bo5VMvnITrnCTG1SRJ5vABJItYn7JKvKebMKyS1axbhKmDpXP1+6cJb32ib/uHfk+onPQGVj9i9+0jC1l802QwsaerMCQkwKfxZYp2VYqL2r2m5I5pqQK46jV8So5Hrl8JUX2o+Q8pVSUrVKDTapIR66sUgrKWW2eS9L0wtRbp19cfh2dI5LVO6efzLdKAtDW7Pz6yS7LgXOaneOLb7b6l1f5AXLJrHqlspVtBzWHUh26b4E8FJl6UMA8gqUDripYJjhwS+W2QRV5LE230jyrKYtQBfkSOz6hV7myC9JHo2bNrom36gwBROegc3gbe/Vq8kTvsfjz87yrlDdBWsrAyloi2lT58yJ3vI0sj2b47QjkgTd1OuAqQIqNULVIBesT8WWhbAXLapB3qbSr2W9I6fJcXkKK8kSb2nX2qQHU7qDjBsjd7+YHi7BRepSt3DLtb+iJDjN0meNtZHk0w8WV0PHzkTqpwJBLpPaCIFBhWoFam3m2+mOvpdaOXTZPWlsgYxieS9A6rf84YbTaE6jnQWfx2T0hjcUXu9kytkTQBA1BpQPlglBLKMTfpjY08flLH38KTe2gM3lyPz9ohDX0X5hGUxlU5hAk1qcONa3obWqu2f+mddmtzp8yGAwHOpbth1/RWD3z77PSyWaKbmODIETqMPVmVyCjHz5Deh2T79fdew5PUwOd3p2ej9IXDllGFwn60NGH3qmD4ta+L1iWGyhX7z50iYF4kn3opI791k3Uhy6aJ6J3TGcNzukjqMkByKEdzmoOfTOjsfqX/2BSehsbDB2G3gGGvt78DkNvDkNff6+10aepzf6p3zfzZzd5zmp27jyJyhwAyqfchDF5YlbrODfPOwbJQVBVpg7VW3QgXM/Q5N3vfz6N6V0ByON2k647R07nnsa2HDZVPNkMBMHUoQ2J3lf1rpkztM7abTmJgXAAlLJn4Ey3eST6sdwAOVTiEARTbzpp6UA45wzROyY//knTPG5TA0CIOz61NtnMD8yj6VXJpnf0oaMPvRP60CsydfSh13NQnM4eyhic00/Tuur5Q59AxQ2AGH2WsxqrL/Furi/dG0fTOwQhUm+u29RcM6R3+PSmG284hegcACWYPHEPP897AgPkIEjI1HGP+sYPhHNME70jNM7XUug3B0ASrZZ0aX9ANLmm9xU2SsdkMxAkGqnDZDdMNm4g3O/Ij0nX5tueRnQOgFIGniAakye6VXSed/Show+9E/vQFZk6+tDrkRfuaWq2iV7b0wS3qQGght6bv8H9aSyji69hSlgIQqTe6NvUDK7ZSVonXXvsRYbeagsAUMGOI0Rj9sSusfiXyud5R4SOCB0RuoipI0KvcZ6yBtcc6bGd/tCnPOcxXzsAlZCf593qX/yW2bfQHkYHQ4eh18PQfYkCU6/keeiBJnkeetMZOtHZw5le58y/0rpo641uNLcDUCk3vJrRbPdG32r1L2daegY5GDoMva6Gnjf1BDV1GHrNNEWb2rPa4df+wmKaQXQOQNXs7uoyeqJ7rfQ2NvSZQpC8qaPfuyYXF3RGOK1t0oFKGIAaoD1BunqGs7l53ldiRk/BZDOtFPUiQkeEXvcIvSiNrLLIOlDDPvRAFRF8QEWEXkm6SrcNrL/auOg8TeueL3xlVqPVnkCFDEAt2PoP57u3ec5/lruNja2suEgETe61i+pa1tATG3QuEq1l6EWRekBOJYYeKHwlxU3ygdILAaHvBS4ahJr3AzL7CwisL7Wt2LpBqf2JpkWj857Bydv/0UNwzzkAtYN0fXxsbZ73Z8y+1CpfwSYqqIzFtksoWFfttlLbqDGPhMA+EhLbJiSOPani+OT2m1CQbyV5VloGSrdLqPgtVLqtXHoJmXOk5jeSqPBio7T5PSBhbmKmKHVBoOhioY7bV5JPpfsMZvTO6Ze4YGLzwxgIB0CtsYzMdRu885fm5nnPlBtOqcSMKaHCABMy68kZYGlEpiSPUmYqtp4Sw00q3D4hUZ4y5b0eHRLxfRSsJ1qGCZX5lTuWgs+C50LtBY/SPIjkuywPpRF6JftOFhxfonSgnJSZkfVoW3BZtoJllaoeaaoV9zQ13VDgihueOInoHIB6YvYlD/IzyBVWfGor241WM+VFLn8bcbzJDcpHNfuodL1klWklqzgWkW3LInVI7IJC54gQgzPyGGpaAOrIze5nu7Tu/DzvSyn+NraNNKlmNc9apJtsweNNtOH5rWNZwdTlxQ2Em16mdUz/Xa9hIBwA9WbLoVe6Td5z11rHL5Q0vUMQpMzUYd5CTe0G1wwxDJ3+6Je+m0FTOwAb2/SecJnHFgkqagiCqVfd1O6cJgZXxEPrlm/vx1ztAGwI9MEIn3D/KDfqfenn5tF0Rrg/vZkq0XhnXHjkj1PueBtZHs1wLsTyQL+vNn9Kti8y9SnCS8jopiQGqU3VYQDbFGmImdvDFw2u6V/SOmVP30sM7d4DAGwgvd6MxnrvrMYyupBgK6mLiL4gCJF6Bbqod0YWjQ/Mvkk38jqa2gFoFF/cO9Nt8M29o2985ff8LHKoqCEIpq5MWtvUau/w3B+3DLz6zp59L2GudgAazZ6B+e7eA7Pv67v/jYswdQiCqSsd0d574OyqznHq8u2H59+EmhSAJmHn0Xh3r3vuCs7UvZypE/Show8dfegK12eVe7pYR/Sha/Nmbjt1zU7LSUTmADSlqdNIfXzl92zUgT51CEKkLnTRwDWz9wy+cnn/9ldh5gA0c/O7ceTMO8yj6SQ/+j2OihqCYOpc9K+zh1b1jvDiloFT79zefwrN7AA0O7c/MtNtOhHTWMcWnzGPLWDyGQjqdFO3TWX0jgjROyO/6h+OdN/+8B8RmQPQKuh1/ExPZl/ygNW/TE29sf3q6ENHH3rz9qHzKjD0dVOX7EPPtkAfOumxTa7qXTNE7wj5aJ1wVz8ehwpAy5GffMboOfNhq39p0dLIaB2GDkNv8kFxpVE6b+qBFh4Ux0XlWb1zelk/NPkxWhfcNPocHoUKQCtCZ5TjovVDL3dfQkiXeTT9CPfoVV9itSgigSBIsOk9Z+otOVkMnZdd7wwfsT0SZLbue55rYsfDVgBoA7b8W1bDR+vnP8BG6y9b/YvE6IllEKEjQkeELrFPblmiZSJ0rW0yY3DROdmnT+mHJq6h//kvYfY3ANozWu95NMpdqRvd0Vv6xleCuf71DFtpYeAcBIn2sTd5pE6N3DlDDMNz4Z7B12+l/3Hdg2e7C//7AIA2pP+ul5g+yyx31W7yzH+6b3z5Rdq/bh5NZbnBc2vmjmZ5CCocONcEt56tv9qmVnX2YJaOXje4Zn7dM3T6c/Q/bTae0+za8Uv0lQPQGfBX7MePZ5nbD0zxxu49f6XZlzxs8S+9YRlb5Myda5LnBtHFS5ox423Y5B5Hkzua3KXTKjP1DWtyJ7yRT2Vok7rOHqID3Qir37Lvv6aznb6K/ocNruOare6QpvA/DgDoFFsn/J/+xhcI4/eQtSt6kyf6CbMvfszqX45bRtPE6l8i5rE0Z+7ctLK8MvzAuvh6hchVfgXvS78rek2Urye2PV3XJ7LcJ7efuPC2PrF9KdiPnHwqPkvlUckxKD3eavLsq+L46lFWqvabkFgnofw8lChnsgUKiLyXU6BkJD1v3HQ2Nzo9K71/XOcIcc3pekeYRuJJnT1wXDs0cVP+/3rXl19hbh7h/79utxsVGwCAc/iu++2E2fnE+n2qfWPJ95u8sV5W37KOL59mTf53ZtbkaRO9ZXyJsN8R2g/PaymbU+F7CGqEiMJ1iMy6Qsu57wzDc9RgsyUiRXIKfHYKfE9HpOdfHRGi4837f3uHZydYc39SZ5vcZrAHLs//L3cc+7qG/le7CCJxAICEqeeb7Ew/IczmR8Oa6waOFvXHmT2JS4ye+euN7uhtJl/UuM0Tvdfoje01uaP7jJ7oAGv+AyZPbD/7ftDoiQ3SV/azjX0dMnrirKJ2Eyt2mYN97zBRuWNO9v2a2DRdVOwyl5G+uqPDJk+8SOz3B9g0coqXKDaS1zZ31M3JE2NfY/wrKyOneMFr3M2myy0z5d6bcu/zy4xr2/HaVvBaJHfx+1w+RgrzVZ7nsmPIaZ57Zcv1QGkZlIktJ6N7nhdXfjGu/LYJat61zcstd5oKyl5QbrpOjD1P8/z5KpBRUDH7uqLicseG1kV/H8Kiv591xelvysb/tvjf17rYz25e23LKfb+fV3Q//W2Wif5mvdGc4gNG9pVdf4BNh77uY/dJf9vsa4wT/Y4t431bByf2aW2c9moHJ/ZutU3dJ6zJ+7RUg5P3stvsYdffrR2avJt97Wf1Tz22yT5WFt3Q6S/q7RM3GJyR9xb+567zfY/ZvCusof/JteZ0mDkAoDKD599v3j2t6R+Z7x5zE80ddxxj7n6CMJfa/4d5l5Mwd/kJ88IgYZ5m3z/rIczEAGFeZ7XAvn+FVXIfYaKsiId0ETerIVb35OQjXXuvO8wMXn+U2f83RxnPBx5b15WHmYGrH2D2X31wTQOXPcCMbHqc1UFWI0U6sOkAc2jTIWZ00yjz4KYHczrE6j5We0V1iNU9rB6+ZC8z8ta9zH3s+xFWw6zcrPay341cslcyDWHdl9s/nxear7FN/rJ8C+tA7jgfZwbew5bBZQeLyqFUA1ffzxy8+jgzelVJGQrqMLP/in9mBj96lCt3IdFzQg6x54c9Z9l7Cs6XlPZw6zPcOZYSmyb9PcQHpEV/N6fY9F518zrJKs0qWaIZB2FO75fWy+xv87/c4nqO3c8PbOzvmNXzAnrGRZgd7HpvYbVnhDBXf/VR5qrD317TXz3wNebKg0cF9CRz5QPfYq556F+Yax/6DvNh3w+ZD7u/w5imCaP1EebOzwWZLZ9/jLnzp+xn96Tmy9tPdW/e/ZSm9P8HAAD1cHoUAQD1vogGAAAAAAAAAAAAAAAAAAAAAAAAAAAAAAAAAAAAAAAAAAAAAAAAAAAAAAAAAAAAAAAAAAAAAAAAAAAAAAAAAAAAAAAAAAAAAAAAAAAAAAAAAAAAAAAAAAAAAAAAAAAAAAAAAAAAAAAAAAAAAAAAAAAAAAAAAAAAAAAAAIBS/h9WEVfCCKlqEAAAAABJRU5ErkJggg==;" vertex="1" parent="TVVWhgvMduf64u-HA2Hp-17">
          <mxGeometry x="72" width="58.333333333333336" height="58.333333333333336" as="geometry" />
        </mxCell>
        <mxCell id="TVVWhgvMduf64u-HA2Hp-18" style="edgeStyle=orthogonalEdgeStyle;rounded=0;orthogonalLoop=1;jettySize=auto;html=1;" edge="1" parent="1" source="TVVWhgvMduf64u-HA2Hp-16" target="N-R3ZWtZ8l9Xppb5PnGK-22">
          <mxGeometry relative="1" as="geometry" />
        </mxCell>
        <mxCell id="TVVWhgvMduf64u-HA2Hp-23" style="edgeStyle=orthogonalEdgeStyle;rounded=0;orthogonalLoop=1;jettySize=auto;html=1;" edge="1" parent="1" source="N-R3ZWtZ8l9Xppb5PnGK-22" target="TVVWhgvMduf64u-HA2Hp-20">
          <mxGeometry relative="1" as="geometry" />
        </mxCell>
        <mxCell id="TVVWhgvMduf64u-HA2Hp-24" style="edgeStyle=orthogonalEdgeStyle;rounded=0;orthogonalLoop=1;jettySize=auto;html=1;" edge="1" parent="1" source="TVVWhgvMduf64u-HA2Hp-20" target="N-R3ZWtZ8l9Xppb5PnGK-31">
          <mxGeometry relative="1" as="geometry" />
        </mxCell>
        <mxCell id="TVVWhgvMduf64u-HA2Hp-25" style="edgeStyle=orthogonalEdgeStyle;rounded=0;orthogonalLoop=1;jettySize=auto;html=1;entryX=0.5;entryY=1;entryDx=0;entryDy=0;entryPerimeter=0;" edge="1" parent="1" source="N-R3ZWtZ8l9Xppb5PnGK-31" target="TVVWhgvMduf64u-HA2Hp-20">
          <mxGeometry relative="1" as="geometry">
            <Array as="points">
              <mxPoint x="1190" y="825" />
              <mxPoint x="1190" y="1380" />
              <mxPoint x="867" y="1380" />
            </Array>
          </mxGeometry>
        </mxCell>
        <mxCell id="TVVWhgvMduf64u-HA2Hp-29" value="" style="group" vertex="1" connectable="0" parent="1">
          <mxGeometry x="1330" y="724" width="140" height="200" as="geometry" />
        </mxCell>
        <mxCell id="TVVWhgvMduf64u-HA2Hp-28" value="" style="image;aspect=fixed;html=1;points=[];align=center;fontSize=12;image=img/lib/azure2/general/File.svg;" vertex="1" parent="TVVWhgvMduf64u-HA2Hp-29">
          <mxGeometry y="30" width="113.62" height="140" as="geometry" />
        </mxCell>
        <mxCell id="TVVWhgvMduf64u-HA2Hp-26" value="" style="sketch=0;aspect=fixed;pointerEvents=1;shadow=0;dashed=0;html=1;strokeColor=none;labelPosition=center;verticalLabelPosition=bottom;verticalAlign=top;align=center;shape=mxgraph.mscae.other.powerpoint;fillColor=#DE5D24;" vertex="1" parent="TVVWhgvMduf64u-HA2Hp-29">
          <mxGeometry x="70" width="70" height="70" as="geometry" />
        </mxCell>
        <mxCell id="TVVWhgvMduf64u-HA2Hp-27" value="" style="dashed=0;outlineConnect=0;html=1;align=center;labelPosition=center;verticalLabelPosition=bottom;verticalAlign=top;shape=mxgraph.webicons.adobe_pdf;fillColor=#F40C0C;gradientColor=#610603" vertex="1" parent="TVVWhgvMduf64u-HA2Hp-29">
          <mxGeometry x="70" y="135" width="60" height="65" as="geometry" />
        </mxCell>
        <mxCell id="TVVWhgvMduf64u-HA2Hp-30" style="edgeStyle=orthogonalEdgeStyle;rounded=0;orthogonalLoop=1;jettySize=auto;html=1;" edge="1" parent="1" source="N-R3ZWtZ8l9Xppb5PnGK-31" target="TVVWhgvMduf64u-HA2Hp-28">
          <mxGeometry relative="1" as="geometry" />
        </mxCell>
      </root>
    </mxGraphModel>
  </diagram>
</mxfile>
